<?xml version="1.0" encoding="UTF-8" standalone="no"?>
<!-- Generator: Adobe Illustrator 16.0.0, SVG Export Plug-In . SVG Version: 6.00 Build 0)  -->

<svg
   xmlns:dc="http://purl.org/dc/elements/1.1/"
   xmlns:cc="http://creativecommons.org/ns#"
   xmlns:rdf="http://www.w3.org/1999/02/22-rdf-syntax-ns#"
   xmlns:svg="http://www.w3.org/2000/svg"
   xmlns="http://www.w3.org/2000/svg"
   xmlns:sodipodi="http://sodipodi.sourceforge.net/DTD/sodipodi-0.dtd"
   xmlns:inkscape="http://www.inkscape.org/namespaces/inkscape"
   version="1.1"
   id="Ebene_1"
   sodipodi:docname="EJO_mit_Schriftzug2_schwarz.svg"
   inkscape:version="0.92.4 (5da689c313, 2019-01-14)"
   x="0px"
   y="0px"
   width="466px"
   height="159px"
   viewBox="0 0 466 159"
   enable-background="new 0 0 466 159"
   xml:space="preserve"><metadata
   id="metadata46"><rdf:RDF><cc:Work
       rdf:about=""><dc:format>image/svg+xml</dc:format><dc:type
         rdf:resource="http://purl.org/dc/dcmitype/StillImage" /></cc:Work></rdf:RDF></metadata><defs
   id="defs44" />
<sodipodi:namedview
   borderopacity="1"
   id="namedview81"
   showgrid="false"
   inkscape:zoom="1.6690352"
   inkscape:cy="110.2177"
   bordercolor="#666666"
   inkscape:cx="237.70754"
   pagecolor="#ffffff"
   objecttolerance="10"
   gridtolerance="10"
   guidetolerance="10"
   inkscape:pageshadow="2"
   inkscape:window-maximized="1"
   inkscape:window-width="1920"
   inkscape:current-layer="Ebene_1"
   inkscape:window-x="-9"
   inkscape:pageopacity="0"
   inkscape:window-height="1013"
   inkscape:window-y="-9">
	</sodipodi:namedview>
<g
   id="g74"
   transform="translate(-41.084769,-7.378254)">
	<path
   id="path2"
   inkscape:connector-curvature="0"
   fill="#767171"
   d="M73.839,38.634c0.049,0.124,0.049,0.357,0,0.703   c-0.025,0.222-0.062,0.469-0.111,0.74c0,1.258-0.45,2.399-1.351,3.422c-0.901,1.024-1.979,1.757-3.237,2.202   c-0.839,0.296-1.764,0.444-2.775,0.444c-2.368,0-4.656-0.537-6.863-1.609c-2.208-1.073-4.015-2.535-5.42-4.385   c-1.752-2.318-2.775-4.797-3.071-7.437c-0.098-0.863-0.148-1.665-0.148-2.405c0-2.047,0.37-3.885,1.11-5.513   c0.419-0.912,1.295-1.8,2.627-2.664c1.208-0.789,2.38-1.319,3.515-1.591c0.814-0.197,1.467-0.296,1.961-0.296   c0.394,0,0.986,0.099,1.776,0.296c0.049-0.024,0.074-0.074,0.074-0.148c0.074,0.074,0.197,0.161,0.37,0.259   c0.024-0.024,0.074-0.049,0.148-0.074c2.096,0.617,4.206,2.381,6.327,5.291c1.899,2.59,3.058,4.946,3.478,7.067   c0.148,0.247,0.308,0.617,0.481,1.11c0.049,0.346-0.013,1.345-0.185,2.997h-0.259c-0.247,0.222-0.666,0.333-1.258,0.333   c-0.419,0-1.054-0.074-1.905-0.222s-1.486-0.222-1.906-0.222h-3.478c-3.01,0-5.525-0.074-7.548-0.222   c-0.148,0.147-0.21,0.271-0.185,0.37c2.442,3.133,6.117,4.823,11.026,5.069c1.085,0.05,2.158-0.431,3.219-1.443   c0.888-1.036,1.788-2.072,2.701-3.108C73.42,37.968,73.716,38.314,73.839,38.634z M68.918,32.973   c-0.346-1.8-1.332-3.712-2.96-5.735c-1.9-2.393-3.774-3.552-5.624-3.478c-0.913,0.025-1.838,0.222-2.775,0.592   c-1.036,0.37-1.826,0.864-2.368,1.48c-1.135,1.258-1.702,2.825-1.702,4.699c0,0.938,0.148,1.838,0.444,2.701   c0.518-0.345,1.073-0.518,1.665-0.518c0.641,0,1.609,0.025,2.904,0.074c1.295,0.05,1.832,0.074,1.609,0.074h6.031   C67.376,32.936,68.302,32.973,68.918,32.973z"
   style="fill:#000000;fill-opacity:1" />
	<path
   id="path4"
   inkscape:connector-curvature="0"
   fill="#767171"
   d="M83.57,50.474c-0.074,0.049-0.259,0.074-0.555,0.074   c-0.247,0.419-0.642,0.629-1.184,0.629c-0.148,0-0.272-0.037-0.37-0.111c-0.173-0.147-0.568-0.777-1.184-1.887   c-0.888-1.579-2.171-3.971-3.848-7.178c-2.146-4.366-3.835-8.954-5.069-13.764c0.025-0.32,0.05-0.789,0.074-1.406   c0.074-0.074,0.161-0.111,0.259-0.111c0.148,0,0.531,0.234,1.147,0.703c0.494,0.37,0.888,0.962,1.184,1.776   c0.148,0.444,0.37,1.11,0.666,1.998c0.592,1.653,1.282,3.441,2.072,5.365c1.332,3.232,2.54,5.723,3.626,7.474   c0.197-0.247,0.32-0.74,0.37-1.48c0.493-6.364,0.814-10.249,0.962-11.655c0.469-4.144,1.073-7.301,1.813-9.472   c0.37,0.271,0.715,0.407,1.036,0.407l1.147,1.998l-0.74,4.144c-0.124,0.642-0.284,1.875-0.481,3.7   c-0.099,0.839-0.259,2.294-0.481,4.366c-0.074,0.642-0.247,4.033-0.518,10.175c-0.025,0.074-0.062,0.173-0.111,0.296   C83.41,47.453,83.472,48.772,83.57,50.474z"
   style="fill:#000000;fill-opacity:1" />
	<path
   id="path6"
   inkscape:connector-curvature="0"
   fill="#767171"
   d="M104.327,47.181c-0.247,0-0.536,0.08-0.869,0.24   c-0.333,0.161-0.562,0.241-0.685,0.241c-0.617,0-1.098-0.37-1.443-1.11c-0.124-0.247-0.309-0.617-0.555-1.11   c-0.888-1.726-2.381-4.008-4.477-6.845c-0.642,0.247-1.604,0.604-2.886,1.073c-1.11,0.42-1.899,0.839-2.368,1.258   c-0.444,0.148-0.95,0.382-1.517,0.703c-0.124,0.173-0.229,0.599-0.314,1.277c-0.087,0.679-0.278,1.153-0.574,1.424   c-0.37,0.099-0.703-0.024-0.999-0.37c-0.198-0.32-0.407-0.641-0.629-0.962c-0.05,0.025-0.752,0.469-2.109,1.332   c-0.74,0.469-1.443,1.036-2.109,1.702c-0.197-0.074-0.505-0.111-0.925-0.111c-0.419-0.419-0.604-1.073-0.555-1.961   c0.025-0.271,0.062-0.505,0.111-0.703c0.691-1.134,1.443-1.924,2.257-2.368c0.518-0.246,1.265-0.623,2.239-1.128   c0.974-0.505,1.684-1.128,2.127-1.869c0.222-0.345,0.66-1.721,1.313-4.125c0.653-2.405,1.091-4.125,1.313-5.162   c0.123-1.085,0.407-2.627,0.851-4.625c0.271-0.838,0.431-1.295,0.481-1.369c0.271-0.542,0.666-0.826,1.184-0.851   c0.222,0.346,0.481,0.851,0.777,1.517c0.37,2.368,0.789,4.23,1.258,5.587c0.518,1.604,1.344,3.343,2.479,5.217   c0.197-0.024,0.604-0.135,1.221-0.333c0.518-0.172,0.912-0.259,1.184-0.259c0.197,0,0.345,0.05,0.444,0.148   c0.024,0.124,0.172,0.419,0.444,0.888c0.124,0.198,0.185,0.814,0.185,1.85c-0.247,0.198-0.752,0.531-1.517,0.999   c1.282,1.875,2.75,4.255,4.403,7.141C104.24,44.813,104.327,45.701,104.327,47.181z M94.559,35.119   c-0.395-0.937-0.938-2.294-1.628-4.07c-0.247,0.444-0.567,1.308-0.962,2.59c-0.518,1.751-0.827,2.738-0.925,2.96   C92.03,36.279,93.202,35.785,94.559,35.119z"
   style="fill:#000000;fill-opacity:1" />
	<path
   id="path8"
   inkscape:connector-curvature="0"
   fill="#767171"
   d="M131.189,48.439c-0.099,0.074-0.346,0.283-0.74,0.629   c-0.395,0.345-0.703,0.518-0.925,0.518c-0.124,0-0.235-0.025-0.333-0.074c-2.911-2.343-5.859-4.822-8.843-7.437   c-1.53-1.332-3.972-3.317-7.326-5.957l-7.512-5.919c-0.099,0.247-0.148,1.036-0.148,2.368c0,0.395-0.111,2.047-0.333,4.958   c-0.074,0.938-0.074,2.048,0,3.33c0,0.099,0.019,0.296,0.056,0.592c0.037,0.296,0.055,0.518,0.055,0.666   c0,0.79-0.284,1.406-0.851,1.85c-0.148,0.124-0.358,0.161-0.629,0.111c-0.641-0.37-1.085-0.938-1.332-1.702   c-0.148-0.69-0.296-1.394-0.444-2.109v-4.81c0.025-0.247,0.087-1.061,0.185-2.442c0.099-1.381,0.161-2.454,0.185-3.219   c0-0.419-0.024-1.196-0.074-2.331l-0.111-2.368c0.074-0.148,0.173-0.37,0.295-0.666c0.591,0,0.998,0.099,1.22,0.296   c2.883,2.448,5.518,4.635,7.908,6.563c0.024,0.025,1.961,1.504,5.81,4.438c2.399,1.822,4.204,3.311,5.416,4.468   c0.42,0.271,0.829,0.566,1.224,0.887c0.742,0.615,1.175,0.997,1.299,1.145c0.519,0.394,1.039,0.726,1.558,0.997   c-0.025-0.961-0.402-3.538-1.129-7.73c-0.638-3.725-0.944-6.82-0.919-9.288c0-0.345-0.013-0.845-0.037-1.499   c-0.025-0.653-0.037-1.141-0.037-1.461c0-1.036,0.172-1.998,0.518-2.886c0.197-0.049,0.431-0.16,0.703-0.333   c0.296,0.05,0.604,0.198,0.925,0.444c0.098,0.197,0.234,0.457,0.407,0.777c0.271,0.222,0.567,0.617,0.888,1.185   c0,0.346-0.043,0.845-0.129,1.499c-0.087,0.654-0.129,1.153-0.129,1.499c0,2.196,0.037,3.836,0.111,4.921   c0.097,1.382,0.708,5.07,1.831,11.065c0.126,0.764,0.355,2.144,0.685,4.141c0,0.099,0.136,0.592,0.407,1.48   C131.115,47.749,131.213,48.217,131.189,48.439z"
   style="fill:#000000;fill-opacity:1" />
	<path
   id="path10"
   inkscape:connector-curvature="0"
   fill="#767171"
   d="M156.645,35.415c-0.148,0.025-0.346,0.087-0.592,0.185   c-0.444,0.321-1.258,0.543-2.442,0.666c-0.79,0.074-2.011,0.284-3.663,0.629c0.098,1.11,0.135,1.974,0.111,2.59   c-0.05,1.332-1.061,2.825-3.034,4.477c-1.579,1.308-3.182,2.319-4.81,3.034c-1.949,0.863-3.996,1.159-6.142,0.888   c-1.357-0.172-2.726-0.845-4.107-2.017c-1.382-1.171-2.294-2.411-2.738-3.719c-0.394-1.184-0.592-2.429-0.592-3.737   c0-2.787,0.789-5.537,2.368-8.251c1.48-2.59,3.417-4.723,5.809-6.401c0.913-0.641,1.862-1.061,2.849-1.258l2.257-0.222   c1.825-0.197,3.379,0.518,4.662,2.146c1.208,1.505,1.751,3.182,1.628,5.032c-0.419,0.42-0.875,0.605-1.369,0.555   c-0.198-0.123-0.444-0.382-0.74-0.777c-0.099-0.345-0.346-0.925-0.74-1.739c-0.716-1.036-1.789-1.677-3.219-1.924   c-0.79-0.124-1.998,0.321-3.626,1.332c-1.11,0.69-1.937,1.32-2.479,1.887c-0.543,0.691-1.11,1.394-1.702,2.109   c-0.198,0.247-0.567,0.95-1.11,2.109c-1.258,2.713-1.887,4.687-1.887,5.92c0,0.716,0.135,1.443,0.407,2.183   c0.148,0.395,0.604,0.875,1.369,1.443c0.764,0.567,1.393,0.938,1.887,1.11c0.69,0.222,1.455,0.333,2.294,0.333   c2.047,0,4.015-0.592,5.902-1.776c1.887-1.184,3.139-2.713,3.755-4.588c-2.664,0.321-6.105,1.11-10.323,2.368   c-1.233,0.37-2.084,0.555-2.553,0.555c-0.198,0-0.37-0.024-0.518-0.074c-0.642-0.32-0.962-1.023-0.962-2.109   c0-0.444,0.061-0.826,0.185-1.147c0.345-0.271,0.666-0.444,0.962-0.518l12.802-3.034c0.493-0.247,0.715-0.37,0.666-0.37   c0.863,0,2.121-0.197,3.774-0.592c1.652-0.394,2.898-0.592,3.737-0.592c0.616,0,1.134,0.099,1.554,0.296   C156.398,32.714,156.521,33.713,156.645,35.415z"
   style="fill:#000000;fill-opacity:1" />
	<path
   id="path12"
   inkscape:connector-curvature="0"
   fill="#767171"
   d="M178.141,38.634c0.049,0.124,0.049,0.357,0,0.703   c-0.025,0.222-0.062,0.469-0.111,0.74c0,1.258-0.45,2.399-1.351,3.422c-0.901,1.024-1.979,1.757-3.237,2.202   c-0.839,0.296-1.764,0.444-2.775,0.444c-2.368,0-4.656-0.537-6.863-1.609c-2.208-1.073-4.015-2.535-5.42-4.385   c-1.752-2.318-2.775-4.797-3.071-7.437c-0.098-0.863-0.148-1.665-0.148-2.405c0-2.047,0.37-3.885,1.11-5.513   c0.419-0.912,1.295-1.8,2.627-2.664c1.208-0.789,2.38-1.319,3.515-1.591c0.814-0.197,1.467-0.296,1.961-0.296   c0.394,0,0.986,0.099,1.776,0.296c0.049-0.024,0.074-0.074,0.074-0.148c0.074,0.074,0.197,0.161,0.37,0.259   c0.024-0.024,0.074-0.049,0.148-0.074c2.096,0.617,4.206,2.381,6.327,5.291c1.899,2.59,3.058,4.946,3.478,7.067   c0.148,0.247,0.308,0.617,0.481,1.11c0.049,0.346-0.013,1.345-0.185,2.997h-0.259c-0.247,0.222-0.666,0.333-1.258,0.333   c-0.419,0-1.054-0.074-1.905-0.222s-1.486-0.222-1.906-0.222h-3.478c-3.01,0-5.525-0.074-7.548-0.222   c-0.148,0.147-0.21,0.271-0.185,0.37c2.442,3.133,6.117,4.823,11.026,5.069c1.085,0.05,2.158-0.431,3.219-1.443   c0.888-1.036,1.788-2.072,2.701-3.108C177.722,37.968,178.018,38.314,178.141,38.634z M173.22,32.973   c-0.346-1.8-1.332-3.712-2.96-5.735c-1.9-2.393-3.774-3.552-5.624-3.478c-0.913,0.025-1.838,0.222-2.775,0.592   c-1.036,0.37-1.826,0.864-2.368,1.48c-1.135,1.258-1.702,2.825-1.702,4.699c0,0.938,0.148,1.838,0.444,2.701   c0.518-0.345,1.073-0.518,1.665-0.518c0.641,0,1.609,0.025,2.904,0.074c1.295,0.05,1.832,0.074,1.609,0.074h6.031   C171.678,32.936,172.604,32.973,173.22,32.973L173.22,32.973z"
   style="fill:#000000;fill-opacity:1" />
	<path
   id="path14"
   inkscape:connector-curvature="0"
   fill="#767171"
   d="M196.086,39.855c-2.418,0.888-4.823,1.801-7.215,2.738   c-1.431,0.567-4.144,1.689-8.14,3.366c-1.184,0.494-2.146,0.802-2.886,0.926c-0.715-0.765-1.122-1.628-1.221-2.59   c-0.024-0.296,0.025-0.653,0.148-1.073c0.074-0.222,0.185-0.58,0.333-1.073c0.346-1.504,0.629-4.637,0.851-9.398   c0.074-1.554,0.074-3.305,0-5.254c-0.074-1.998-0.246-5.069-0.518-9.213c-0.024-0.247,0.037-0.555,0.185-0.925   c0.32,0.05,0.703,0.284,1.147,0.704c0.444,0.42,0.728,0.79,0.851,1.11c0.123,0.148,0.259,0.371,0.407,0.667   c0.69,5.306,1.036,9.415,1.036,12.326v4.96c0-0.271-0.111,1.099-0.333,4.109c0.099,0.074,0.187,0.099,0.262,0.074   c3.23-1.235,7.497-2.841,12.799-4.818c0.394,0.05,0.974,0.148,1.738,0.296C195.679,37.452,195.864,38.475,196.086,39.855   L196.086,39.855z"
   style="fill:#000000;fill-opacity:1" />
	<path
   id="path16"
   inkscape:connector-curvature="0"
   fill="#767171"
   d="M213.069,30.578l-1.702,1.661   c-1.924,1.33-4.194,2.154-6.808,2.474c-0.395,0.148-1.012,0.222-1.85,0.222c-4.366,0-7.413-1.427-9.139-4.283   c-0.69-1.156-1.036-2.375-1.036-3.654c0-3.372,2.368-5.771,7.104-7.2c0.395-0.048,0.912-0.159,1.554-0.332   c0.197-0.123,0.333-0.394,0.407-0.813c0.197-0.098,0.32-0.209,0.37-0.332c3.231-0.099,6.302,1.021,9.213,3.359   c1.652,1.846,2.479,3.938,2.479,6.276C213.661,28.966,213.463,29.84,213.069,30.578L213.069,30.578z M211.182,27.238   c0-1.159-0.839-2.368-2.516-3.626c-1.604-1.184-3.009-1.739-4.218-1.665c-3.256,0.198-5.871,1.16-7.844,2.886   c-0.395,0.346-0.765,0.833-1.11,1.461c-0.346,0.629-0.518,1.19-0.518,1.684c0,0.148,0.024,0.284,0.074,0.407   c0.764,1.85,2.947,2.898,6.549,3.145c0.592,0.049,1.418,0.024,2.479-0.074c0.172-0.049,0.395-0.111,0.666-0.185   c1.332-0.074,3.046-0.752,5.143-2.035C210.75,28.718,211.182,28.052,211.182,27.238z M207.445,52.102   c-0.124,0-0.383,0.129-0.777,0.389c-0.395,0.259-0.654,0.388-0.777,0.388c-0.321,0-0.679-0.271-1.073-0.814   c-0.543-0.74-1.147-2.492-1.813-5.254c-0.074-0.542-0.235-1.517-0.481-2.923c-0.346-1.825-0.518-2.849-0.518-3.071   c0-0.986,0.37-1.541,1.11-1.665c0.74-0.123,1.332,0.407,1.776,1.591c0.172,0.444,0.382,1.308,0.629,2.59   c0.419,2.171,0.715,3.478,0.888,3.922c0.296,0.567,0.616,1.356,0.962,2.368C207.42,49.968,207.445,50.794,207.445,52.102   L207.445,52.102z"
   style="fill:#000000;fill-opacity:1" />
	<path
   id="path18"
   inkscape:connector-curvature="0"
   fill="#767171"
   d="M233.271,37.487c-0.05,0.321-0.247,0.95-0.592,1.887   c-2.467,4.613-5.427,7.573-8.88,8.88c-0.198,0-0.481,0.024-0.851,0.074c-0.37,0.148-0.777,0.222-1.221,0.222   c-2.245,0-4.551-1.332-6.919-3.996c-0.987-1.11-1.48-2.405-1.48-3.885c0-0.764,0.172-1.369,0.518-1.813l0.222-0.037   c0.148-0.024,0.259-0.037,0.333-0.037v0.333c0.493,0,0.875,0.247,1.147,0.74c0.197,0.469,0.407,0.938,0.629,1.406   c0.049-0.024,0.123-0.074,0.222-0.148c-0.173,0.494-0.148,0.888,0.074,1.184c1.307,1.826,2.849,2.738,4.625,2.738   c2.022,0,3.885-1.085,5.587-3.256c2.541-3.231,3.798-5.723,3.774-7.474c-0.247-0.148-0.654-0.222-1.221-0.222   c1.43,0,1.27,0.087-0.481,0.259c-0.148,0.024-2.529,0.247-7.141,0.666c-3.454,0.296-5.859,0.542-7.215,0.74   c-1.752,0.247-2.837,0.37-3.256,0.37c-0.617,0-1.196-0.074-1.739-0.222c-0.296-0.074-0.653-0.283-1.073-0.629   c-0.419-0.345-0.703-0.666-0.851-0.962c-0.395-0.764-0.518-1.554-0.37-2.368c0.42-2.343,1.456-4.896,3.108-7.659   c2.121-3.552,4.316-5.328,6.586-5.328c1.258,0,2.38,0.481,3.367,1.443c0.863,0.864,1.467,1.949,1.813,3.256   c0.296,1.11,0.481,2.726,0.555,4.847c-0.073,0-0.286,0.117-0.639,0.352s-0.614,0.352-0.784,0.352c-0.146,0-0.28-0.062-0.401-0.185   c-0.17-0.222-0.414-0.567-0.729-1.036c0-0.172,0-0.357,0-0.555c-0.099-1.948-0.321-3.28-0.666-3.996   c-0.025-0.197-0.074-0.444-0.148-0.74c-0.272-0.394-0.777-0.604-1.517-0.629c-1.11-0.049-2.208,0.604-3.293,1.961   c-0.568,0.716-1.308,1.924-2.22,3.626c-0.617,1.184-1.308,2.825-2.072,4.921c3.724-0.444,9.669-1.073,17.834-1.887   c0.962-0.074,1.751-0.074,2.368,0c0.69,0.099,1.295,0.383,1.813,0.851c1.011,0.913,1.517,2.22,1.517,3.922   C233.604,36.094,233.492,36.772,233.271,37.487L233.271,37.487z"
   style="fill:#000000;fill-opacity:1" />
	<path
   id="path20"
   inkscape:connector-curvature="0"
   fill="#767171"
   d="M250.142,38.301c0.394,0.395,0.592,0.962,0.592,1.702   c0,1.332-0.469,2.615-1.406,3.848c-0.469,0.592-1.554,1.098-3.256,1.517c-1.16,0.271-2.405,0.234-3.737-0.111   c-3.034-0.789-5.341-2.664-6.919-5.624c-1.283-2.417-1.924-5.167-1.924-8.251c0-1.184,0.098-2.257,0.296-3.219   c0.098-0.197,0.234-0.493,0.407-0.888c1.208-0.567,2.972-0.851,5.291-0.851c1.282,0,2.491,0.099,3.626,0.296   c-0.617-0.986-1.48-2.541-2.59-4.662c-0.05-0.098-0.074-0.209-0.074-0.333c0-0.222,0.124-0.579,0.37-1.073   c0.247-0.493,0.37-0.814,0.37-0.962l0.74-0.074c0.271-0.024,0.457,0.025,0.555,0.148c0.74,1.085,2.306,3.676,4.699,7.77   l1.406,2.405c0.518,0.913,0.777,1.628,0.777,2.146c0,0.147-0.024,0.284-0.074,0.407c-0.05,0.321-0.111,0.802-0.185,1.443   c-0.124-0.024-0.327,0.006-0.61,0.092c-0.284,0.087-0.487,0.13-0.611,0.13c-0.321,0-0.604-0.146-0.851-0.44   c-0.716-0.856-1.332-1.468-1.85-1.834c-0.666-0.367-1.258-0.697-1.776-0.991c-1.209-0.708-2.664-1.063-4.366-1.063   c-1.11,0-2.097,0.172-2.96,0.516c-0.025,0.32-0.037,0.64-0.037,0.959c0,1.869,0.542,3.824,1.628,5.865   c1.529,2.853,3.626,4.365,6.29,4.537c1.307,0.074,2.294-0.056,2.96-0.389s1.307-1.054,1.924-2.165   C249.167,38.56,249.599,38.277,250.142,38.301z"
   style="fill:#000000;fill-opacity:1" />
	<path
   id="path22"
   inkscape:connector-curvature="0"
   fill="#767171"
   d="M273.674,49.438c-0.247-0.074-0.568,0.012-0.963,0.259   c-0.395,0.246-0.641,0.37-0.739,0.37s-0.185-0.025-0.259-0.074c-0.592-0.716-1.32-2.208-2.184-4.477   c-1.184-3.108-1.899-4.921-2.146-5.439c-0.986,0.198-2.467,0.481-4.439,0.851c-1.727,0.346-3.084,0.691-4.07,1.036   c0.32,0.864,1.147,2.677,2.479,5.439c0.888,1.85,1.332,3.219,1.332,4.107c0,0.222-0.024,0.444-0.074,0.666   c-0.247,0-0.407-0.037-0.481-0.111c-0.295,0.518-0.641,0.777-1.035,0.777c-0.444,0-0.827-0.284-1.147-0.851   c-0.616-1.061-1.295-2.541-2.034-4.44c-1.037-2.614-1.715-4.268-2.035-4.958c-0.963,0.198-2.899,0.9-5.81,2.109   c-0.419,0.173-0.925,0.247-1.517,0.222c-0.641-0.74-0.962-1.418-0.962-2.035c0-1.011,0.864-1.875,2.59-2.59   c0.444-0.123,1.887-0.567,4.33-1.332c-0.148-0.69-0.519-1.8-1.11-3.33c-0.543-1.431-0.888-2.565-1.036-3.404   c-0.543-3.108-0.814-4.958-0.814-5.55c0-0.542,0.049-1.073,0.148-1.591c1.036,0.049,1.789,0.481,2.258,1.296   c0.296,0.543,0.518,1.419,0.666,2.629c0.148,1.358,0.297,2.234,0.444,2.629c0.542,1.555,1.356,3.69,2.442,6.405   c2.047-0.471,4.957-1.066,8.73-1.786c-0.543-1.899-1.098-3.996-1.665-6.29c-0.395-1.579-0.616-3.157-0.666-4.735   c-0.024-0.765-0.024-1.221,0-1.369s0.173-0.333,0.444-0.555c0.123-0.024,0.234-0.037,0.333-0.037c0.838,0,1.344,0.419,1.517,1.258   c0.567,2.048,1.356,5.131,2.368,9.25c0.173,0.79,0.382,1.357,0.629,1.702c0.074,0.124,0.333,0.247,0.777,0.37l0.851,0.259   c0.223,0.124,0.363,0.364,0.426,0.721c0.061,0.358,0.104,0.697,0.129,1.018c0.148,0.617,0.21,0.975,0.186,1.073   c-0.148,0.099-0.407,0.321-0.777,0.666c0.123,0.691,0.679,2.122,1.666,4.292c0.887,1.949,1.332,3.478,1.332,4.588   C273.785,48.821,273.748,49.142,273.674,49.438z"
   style="fill:#000000;fill-opacity:1" />
	<path
   id="path24"
   inkscape:connector-curvature="0"
   fill="#767171"
   d="M294.948,38.634c0.05,0.124,0.05,0.357,0,0.703   c-0.023,0.222-0.063,0.469-0.109,0.74c0,1.258-0.451,2.399-1.353,3.422c-0.899,1.024-1.979,1.757-3.236,2.202   c-0.84,0.296-1.765,0.444-2.774,0.444c-2.368,0-4.656-0.537-6.863-1.609c-2.209-1.073-4.016-2.535-5.421-4.385   c-1.752-2.318-2.774-4.797-3.071-7.437c-0.098-0.863-0.148-1.665-0.148-2.405c0-2.047,0.371-3.885,1.111-5.513   c0.418-0.912,1.295-1.8,2.627-2.664c1.207-0.789,2.379-1.319,3.514-1.591c0.814-0.197,1.469-0.296,1.963-0.296   c0.394,0,0.984,0.099,1.775,0.296c0.049-0.024,0.073-0.074,0.073-0.148c0.074,0.074,0.197,0.161,0.37,0.259   c0.023-0.024,0.074-0.049,0.148-0.074c2.096,0.617,4.205,2.381,6.326,5.291c1.898,2.59,3.059,4.946,3.479,7.067   c0.148,0.247,0.309,0.617,0.48,1.11c0.049,0.346-0.013,1.345-0.186,2.997h-0.26c-0.246,0.222-0.666,0.333-1.258,0.333   c-0.42,0-1.055-0.074-1.905-0.222s-1.486-0.222-1.905-0.222h-3.479c-3.01,0-5.524-0.074-7.549-0.222   c-0.146,0.147-0.209,0.271-0.185,0.37c2.442,3.133,6.117,4.823,11.026,5.069c1.084,0.05,2.158-0.431,3.219-1.443   c0.889-1.036,1.787-2.072,2.701-3.108C294.529,37.968,294.824,38.314,294.948,38.634L294.948,38.634z M290.027,32.973   c-0.347-1.8-1.332-3.712-2.96-5.735c-1.899-2.393-3.774-3.552-5.624-3.478c-0.913,0.025-1.839,0.222-2.775,0.592   c-1.034,0.37-1.825,0.864-2.366,1.48c-1.136,1.258-1.703,2.825-1.703,4.699c0,0.938,0.147,1.838,0.444,2.701   c0.519-0.345,1.072-0.518,1.664-0.518c0.642,0,1.609,0.025,2.904,0.074c1.295,0.05,1.832,0.074,1.608,0.074h6.031   C288.485,32.936,289.41,32.973,290.027,32.973L290.027,32.973z"
   style="fill:#000000;fill-opacity:1" />
	<path
   id="path26"
   inkscape:connector-curvature="0"
   fill="#767171"
   d="M317.186,37.487c-0.051,0.321-0.248,0.95-0.592,1.887   c-2.468,4.613-5.429,7.573-8.881,8.88c-0.197,0-0.48,0.024-0.852,0.074c-0.37,0.148-0.776,0.222-1.223,0.222   c-2.244,0-4.551-1.332-6.918-3.996c-0.986-1.11-1.479-2.405-1.479-3.885c0-0.764,0.172-1.369,0.519-1.813l0.223-0.037   c0.148-0.024,0.259-0.037,0.333-0.037v0.333c0.493,0,0.875,0.247,1.147,0.74c0.196,0.469,0.405,0.938,0.629,1.406   c0.049-0.024,0.123-0.074,0.221-0.148c-0.172,0.494-0.146,0.888,0.074,1.184c1.308,1.826,2.85,2.738,4.625,2.738   c2.022,0,3.885-1.085,5.588-3.256c2.539-3.231,3.797-5.723,3.772-7.474c-0.246-0.148-0.653-0.222-1.221-0.222   c1.43,0,1.271,0.087-0.479,0.259c-0.148,0.024-2.529,0.247-7.143,0.666c-3.454,0.296-5.857,0.542-7.215,0.74   c-1.752,0.247-2.838,0.37-3.256,0.37c-0.616,0-1.196-0.074-1.739-0.222c-0.296-0.074-0.653-0.283-1.072-0.629   c-0.42-0.345-0.703-0.666-0.853-0.962c-0.395-0.764-0.518-1.554-0.369-2.368c0.42-2.343,1.455-4.896,3.107-7.659   c2.121-3.552,4.316-5.328,6.586-5.328c1.258,0,2.381,0.481,3.367,1.443c0.863,0.864,1.467,1.949,1.813,3.256   c0.296,1.11,0.479,2.726,0.555,4.847c-0.071,0-0.285,0.117-0.64,0.352c-0.352,0.235-0.612,0.352-0.782,0.352   c-0.146,0-0.279-0.062-0.401-0.185c-0.171-0.222-0.414-0.567-0.729-1.036c0-0.172,0-0.357,0-0.555   c-0.1-1.948-0.32-3.28-0.666-3.996c-0.025-0.197-0.074-0.444-0.148-0.74c-0.271-0.394-0.775-0.604-1.517-0.629   c-1.11-0.049-2.208,0.604-3.293,1.961c-0.567,0.716-1.308,1.924-2.22,3.626c-0.617,1.184-1.31,2.825-2.072,4.921   c3.725-0.444,9.669-1.073,17.834-1.887c0.962-0.074,1.751-0.074,2.367,0c0.691,0.099,1.296,0.383,1.813,0.851   c1.011,0.913,1.517,2.22,1.517,3.922C317.518,36.094,317.407,36.772,317.186,37.487L317.186,37.487z"
   style="fill:#000000;fill-opacity:1" />
	<path
   id="path28"
   inkscape:connector-curvature="0"
   fill="#767171"
   d="M102.514,86.623c0.074,0.346,0.111,0.68,0.111,1   c0,2.021-1.061,3.896-3.182,5.623c-1.998,1.652-4.033,2.479-6.105,2.479c-2.64,0-5.192-0.752-7.659-2.256   c-2.688-1.629-4.539-3.75-5.55-6.364c-0.222-0.593-0.431-1.171-0.629-1.739c0.05-0.271,0.062-0.653,0.037-1.147   c0.198-0.074,0.383-0.111,0.555-0.111c0.765,0,1.529,0.691,2.294,2.072c0.666,1.209,1.505,2.133,2.516,2.774   c0.468,0.32,1.356,0.875,2.664,1.664c1.431,0.789,2.997,1.185,4.699,1.185c2.195,0,4.033-0.74,5.513-2.22   c0.172-0.073,0.407-0.26,0.703-0.555c0.616-0.912,0.925-1.938,0.925-3.072c0-1.11-0.333-2.417-0.999-3.922   c-0.395-0.888-1.073-2.158-2.035-3.811c-2.417-4.168-4.675-6.833-6.771-7.992c-1.184-0.666-1.776-1.517-1.776-2.553   c0-0.469,0.111-0.962,0.333-1.48c0.592-0.123,1.381,0.222,2.368,1.036c0.222,0.222,0.826,0.802,1.813,1.739   c1.628,1.554,3.417,3.7,5.365,6.438C99.973,78.619,101.576,82.356,102.514,86.623z"
   style="fill:#000000;fill-opacity:1" />
	<path
   id="path30"
   inkscape:connector-curvature="0"
   fill="#767171"
   d="M121.42,96.243c-0.198,0.023-0.451,0.203-0.759,0.535   c-0.309,0.334-0.536,0.488-0.684,0.463c-0.913-0.147-2.097-0.518-3.552-1.108c-1.826-0.767-2.997-1.222-3.515-1.369l-2.886-0.853   c-0.691-0.073-1.419-0.209-2.183-0.405c-1.653-0.42-2.899-0.777-3.737-1.074c-1.431-0.492-2.59-1.047-3.478-1.664   c-1.282-0.889-2.047-1.948-2.294-3.182c-0.172-0.912-0.234-1.53-0.185-1.851c0.592-3.453,2.109-7.289,4.551-11.507   c0.123-0.197,0.407-0.296,0.851-0.296c-0.05,0-0.124,0.037-0.222,0.111c0.148,0.148,0.518,0.383,1.11,0.703   c0.518,0.271,0.912,0.58,1.184,0.925c-0.395,0.642-0.925,1.604-1.591,2.886c-1.11,2.763-1.912,4.946-2.405,6.549   c-0.296,0.962-0.444,1.616-0.444,1.961c0,0.864,0.444,1.442,1.332,1.739c0.296,0.1,1.356,0.383,3.182,0.852   c0.37,0.123,1.097,0.32,2.183,0.592c3.034,0.716,6.327,1.701,9.879,2.96c-0.469-4.736-2.085-11.223-4.847-19.461   c-0.419-1.258-1.221-2.565-2.405-3.922c-0.025-0.419-0.124-1.023-0.296-1.813c0.172-0.074,0.419-0.185,0.74-0.333   c-0.074,0.074-0.111,0.148-0.111,0.222c1.529,0.494,2.812,1.752,3.848,3.774c0.222,0.42,0.814,1.949,1.776,4.588   c0.098,0.271,0.333,1.073,0.703,2.405c0.222,0.913,0.653,2.492,1.295,4.736c0.148,0.518,0.246,1.11,0.296,1.776   c0.049,0.074,0.135,0.173,0.259,0.296c0.74,3.084,1.356,5.563,1.85,7.438c0.123,0.492,0.123,0.863,0,1.108   c0.395,0.765,0.592,1.394,0.592,1.888C121.458,96.033,121.445,96.145,121.42,96.243z"
   style="fill:#000000;fill-opacity:1" />
	<path
   id="path32"
   inkscape:connector-curvature="0"
   fill="#767171"
   d="M147.801,79.815c-0.148,0.025-0.346,0.087-0.592,0.185   c-0.444,0.321-1.258,0.543-2.442,0.666c-0.79,0.074-2.011,0.284-3.663,0.629c0.098,1.11,0.135,1.974,0.111,2.59   c-0.05,1.332-1.061,2.825-3.034,4.478c-1.579,1.308-3.182,2.318-4.81,3.033c-1.949,0.863-3.996,1.158-6.142,0.889   c-1.357-0.174-2.726-0.846-4.107-2.018c-1.382-1.172-2.294-2.41-2.738-3.719c-0.394-1.184-0.592-2.429-0.592-3.736   c0-2.787,0.789-5.537,2.368-8.251c1.48-2.59,3.417-4.723,5.809-6.401c0.913-0.641,1.862-1.061,2.849-1.258l2.257-0.222   c1.825-0.197,3.379,0.518,4.662,2.146c1.208,1.505,1.751,3.182,1.628,5.032c-0.419,0.42-0.875,0.605-1.369,0.555   c-0.198-0.123-0.444-0.382-0.74-0.777c-0.099-0.345-0.346-0.925-0.74-1.739c-0.716-1.036-1.789-1.677-3.219-1.924   c-0.79-0.124-1.998,0.321-3.626,1.332c-1.11,0.69-1.937,1.32-2.479,1.887c-0.543,0.691-1.11,1.395-1.702,2.109   c-0.198,0.247-0.567,0.95-1.11,2.109c-1.258,2.713-1.887,4.687-1.887,5.92c0,0.716,0.135,1.443,0.407,2.183   c0.148,0.395,0.604,0.875,1.369,1.443c0.764,0.566,1.393,0.938,1.887,1.109c0.69,0.224,1.455,0.334,2.294,0.334   c2.047,0,4.015-0.593,5.902-1.777c1.887-1.184,3.139-2.713,3.755-4.587c-2.664,0.321-6.105,1.11-10.323,2.368   c-1.233,0.37-2.084,0.555-2.553,0.555c-0.198,0-0.37-0.024-0.518-0.074c-0.642-0.32-0.962-1.023-0.962-2.109   c0-0.444,0.061-0.826,0.185-1.146c0.345-0.271,0.666-0.444,0.962-0.518l12.802-3.034c0.493-0.247,0.715-0.37,0.666-0.37   c0.863,0,2.121-0.197,3.774-0.592c1.652-0.394,2.898-0.592,3.737-0.592c0.616,0,1.134,0.099,1.554,0.296   C147.554,77.114,147.677,78.113,147.801,79.815z"
   style="fill:#000000;fill-opacity:1" />
	<path
   id="path34"
   inkscape:connector-curvature="0"
   fill="#767171"
   d="M169.298,83.035c0.049,0.124,0.049,0.357,0,0.703   c-0.025,0.222-0.062,0.469-0.111,0.74c0,1.258-0.45,2.399-1.351,3.424c-0.901,1.022-1.979,1.758-3.237,2.2   c-0.839,0.295-1.764,0.443-2.775,0.443c-2.368,0-4.656-0.535-6.863-1.609c-2.208-1.071-4.015-2.534-5.42-4.384   c-1.752-2.318-2.775-4.797-3.071-7.437c-0.098-0.863-0.148-1.665-0.148-2.405c0-2.047,0.37-3.885,1.11-5.513   c0.419-0.912,1.295-1.8,2.627-2.664c1.208-0.789,2.38-1.319,3.515-1.591c0.814-0.197,1.467-0.296,1.961-0.296   c0.394,0,0.986,0.099,1.776,0.296c0.049-0.024,0.074-0.074,0.074-0.148c0.074,0.074,0.197,0.161,0.37,0.259   c0.024-0.024,0.074-0.049,0.148-0.074c2.096,0.617,4.206,2.381,6.327,5.291c1.899,2.59,3.058,4.946,3.478,7.067   c0.148,0.247,0.308,0.617,0.481,1.11c0.049,0.346-0.013,1.345-0.185,2.997h-0.259c-0.247,0.222-0.666,0.333-1.258,0.333   c-0.419,0-1.054-0.074-1.905-0.222c-0.851-0.148-1.486-0.222-1.906-0.222h-3.478c-3.01,0-5.525-0.074-7.548-0.222   c-0.148,0.148-0.21,0.272-0.185,0.37c2.442,3.133,6.117,4.823,11.026,5.068c1.085,0.051,2.158-0.431,3.219-1.442   c0.888-1.036,1.788-2.072,2.701-3.108C168.878,82.369,169.174,82.714,169.298,83.035z M164.377,77.374   c-0.346-1.8-1.332-3.712-2.96-5.735c-1.9-2.393-3.774-3.552-5.624-3.478c-0.913,0.025-1.838,0.222-2.775,0.592   c-1.036,0.37-1.826,0.864-2.368,1.48c-1.135,1.258-1.702,2.825-1.702,4.699c0,0.938,0.148,1.838,0.444,2.701   c0.518-0.345,1.073-0.518,1.665-0.518c0.641,0,1.609,0.025,2.904,0.074c1.295,0.05,1.832,0.074,1.609,0.074h6.031   C162.835,77.336,163.76,77.374,164.377,77.374z"
   style="fill:#000000;fill-opacity:1" />
	<path
   id="path36"
   inkscape:connector-curvature="0"
   fill="#767171"
   d="M197.159,92.84c-0.099,0.073-0.346,0.282-0.74,0.629   c-0.395,0.346-0.703,0.519-0.925,0.519c-0.124,0-0.235-0.025-0.333-0.074c-2.911-2.344-5.859-4.822-8.843-7.438   c-1.53-1.332-3.972-3.317-7.326-5.957L171.48,74.6c-0.099,0.247-0.148,1.036-0.148,2.368c0,0.395-0.111,2.047-0.333,4.958   c-0.074,0.938-0.074,2.048,0,3.33c0,0.099,0.019,0.296,0.056,0.592s0.055,0.518,0.055,0.665c0,0.791-0.284,1.406-0.851,1.852   c-0.148,0.123-0.358,0.16-0.629,0.109c-0.641-0.369-1.085-0.938-1.332-1.701c-0.148-0.69-0.296-1.394-0.444-2.109v-4.81   c0.025-0.247,0.087-1.061,0.185-2.442c0.099-1.381,0.161-2.454,0.185-3.219c0-0.419-0.024-1.196-0.074-2.331l-0.111-2.368   c0.074-0.148,0.173-0.37,0.295-0.666c0.591,0,0.998,0.099,1.22,0.296c2.883,2.448,5.518,4.635,7.908,6.563   c0.024,0.025,1.961,1.504,5.81,4.438c2.399,1.822,4.204,3.311,5.416,4.468c0.42,0.271,0.829,0.566,1.224,0.887   c0.742,0.615,1.175,0.997,1.299,1.144c0.519,0.395,1.039,0.727,1.558,0.997c-0.025-0.961-0.402-3.538-1.129-7.729   c-0.638-3.725-0.944-6.82-0.919-9.288c0-0.345-0.013-0.845-0.037-1.499c-0.025-0.653-0.037-1.141-0.037-1.461   c0-1.036,0.172-1.998,0.518-2.886c0.197-0.049,0.431-0.16,0.703-0.333c0.296,0.05,0.604,0.198,0.925,0.444   c0.098,0.197,0.234,0.457,0.407,0.777c0.271,0.222,0.567,0.617,0.888,1.185c0,0.346-0.043,0.845-0.129,1.499   c-0.087,0.654-0.129,1.153-0.129,1.499c0,2.196,0.037,3.836,0.111,4.921c0.097,1.382,0.708,5.07,1.831,11.065   c0.126,0.764,0.355,2.145,0.685,4.141c0,0.1,0.136,0.592,0.407,1.479C197.085,92.148,197.183,92.617,197.159,92.84z"
   style="fill:#000000;fill-opacity:1" />
	<path
   id="path38"
   inkscape:connector-curvature="0"
   fill="#767171"
   d="M219.618,81.406c0,4.638-2.677,8.152-8.029,10.544   c-2.59,1.16-5.069,1.752-7.437,1.775c-1.924,0.025-3.515-0.072-4.773-0.295c-0.346-0.123-0.839-0.26-1.48-0.406   c-0.543-0.691-0.814-1.506-0.814-2.443c0-0.937,0.296-1.713,0.888-2.329c0.172-0.099,0.407,0,0.703,0.295   c0.395,0.396,0.641,0.616,0.74,0.666c0.888,0.346,2.01,0.52,3.367,0.52c0.518,0,0.949-0.036,1.295-0.11   c-0.395-0.912-0.752-1.752-1.073-2.518c-0.296-0.666-0.876-1.702-1.739-3.108c-2.393-3.034-4.255-5.057-5.587-6.068   c-0.271-0.197-0.912-0.629-1.924-1.295c-0.789-0.641-1.184-1.245-1.184-1.813c0-0.345,0.099-0.789,0.296-1.332l0.37-0.999   c1.948-0.468,4.501-0.703,7.659-0.703c1.085,0,2.244,0.025,3.478,0.074C214.536,72.329,219.618,75.511,219.618,81.406z    M216.695,81.776c-0.321-3.601-4.465-5.611-12.432-6.031c-0.494-0.024-2.479-0.024-5.957,0c2.27,2.27,3.91,4.058,4.921,5.365   c1.628,2.122,2.664,4.12,3.108,5.994c0.222,0.938,0.123,1.714-0.296,2.331c1.825,0,3.786-0.617,5.883-1.85   c0.271-0.174,0.912-0.642,1.924-1.406c0.542-0.419,1.147-1.098,1.813-2.035C216.399,83.084,216.744,82.294,216.695,81.776   L216.695,81.776z"
   style="fill:#000000;fill-opacity:1" />
	<path
   id="path40"
   inkscape:connector-curvature="0"
   fill="#767171"
   d="M247.737,98.204c-1.456,0.839-2.899,1.259-4.329,1.259   c-3.306,0-6.475-1.765-9.509-5.291c-1.752-2.023-3.38-4.601-4.884-7.733c-0.37,1.579-1.172,3.169-2.405,4.772   c-1.431,1.85-2.874,2.774-4.329,2.774c-1.258,0-2.368-0.813-3.33-2.44c-0.863-1.48-1.282-2.888-1.258-4.219   c0.124-4.07,1.246-8.658,3.367-13.764c0.32-0.74,0.703-1.245,1.147-1.517c0.123-0.074,0.333-0.135,0.629-0.185   c0.74,0.198,1.443,0.728,2.109,1.591c-1.16,1.678-2.122,3.922-2.886,6.734c-0.69,2.541-1.085,4.983-1.184,7.326   c-0.05,0.912,0.012,1.752,0.185,2.516c0.049,0.271,0.234,0.48,0.555,0.629c0.567-0.196,0.999-0.455,1.295-0.776   c2.466-2.539,3.761-6.302,3.885-11.285c0.074,0,0.222,0.05,0.444,0.148c0.049-0.024,0.123-0.086,0.222-0.185   c0.32,0.025,0.629,0.124,0.925,0.296c0.986,0.839,1.603,1.912,1.85,3.219c0.197,0.444,0.53,1.246,0.999,2.405   c0.962,2.59,2.207,4.872,3.737,6.845c2.096,2.713,4.23,4.146,6.401,4.293c1.504,0.099,2.541,0.099,3.108,0   c1.282-0.223,2.442-1.147,3.478-2.774c0.246-0.396,0.37-0.927,0.37-1.593c0-1.135-0.296-2.403-0.888-3.811   c-1.258-3.009-2.652-5.698-4.181-8.066c-2.072-3.182-4.07-5.192-5.994-6.031c-0.198-0.098-0.376-0.296-0.536-0.592   c-0.161-0.296-0.314-0.58-0.463-0.851c0.049-0.37,0.074-0.678,0.074-0.925c0-0.345-0.05-0.542-0.148-0.592   c0.148-0.197,0.357-0.296,0.629-0.296c0.395,0,1.147,0.346,2.257,1.036c1.431,0.888,2.541,1.789,3.33,2.701   c1.134,1.308,2.491,3.33,4.07,6.068c3.354,5.797,5.032,9.978,5.032,12.542C251.511,94.775,250.253,96.699,247.737,98.204z"
   style="fill:#000000;fill-opacity:1" />
	<path
   id="path42"
   inkscape:connector-curvature="0"
   fill="#767171"
   d="M272.896,83.035c0.05,0.124,0.05,0.357,0,0.703   c-0.024,0.222-0.061,0.469-0.11,0.74c0,1.258-0.45,2.399-1.351,3.424c-0.901,1.023-1.979,1.758-3.237,2.2   c-0.839,0.295-1.765,0.443-2.775,0.443c-2.368,0-4.655-0.535-6.863-1.609c-2.208-1.071-4.015-2.534-5.42-4.384   c-1.752-2.318-2.775-4.797-3.071-7.437c-0.098-0.863-0.148-1.665-0.148-2.405c0-2.047,0.37-3.885,1.11-5.513   c0.419-0.912,1.295-1.8,2.627-2.664c1.208-0.789,2.38-1.319,3.515-1.591c0.814-0.197,1.467-0.296,1.961-0.296   c0.395,0,0.986,0.099,1.776,0.296c0.049-0.024,0.073-0.074,0.073-0.148c0.074,0.074,0.197,0.161,0.371,0.259   c0.023-0.024,0.074-0.049,0.147-0.074c2.097,0.617,4.206,2.381,6.327,5.291c1.898,2.59,3.059,4.946,3.479,7.067   c0.147,0.247,0.308,0.617,0.48,1.11c0.049,0.346-0.013,1.345-0.186,2.997h-0.258c-0.248,0.222-0.666,0.333-1.259,0.333   c-0.419,0-1.054-0.074-1.905-0.222c-0.852-0.148-1.486-0.222-1.906-0.222h-3.478c-3.01,0-5.525-0.074-7.548-0.222   c-0.148,0.148-0.21,0.272-0.186,0.37c2.442,3.133,6.117,4.823,11.026,5.068c1.085,0.051,2.158-0.431,3.22-1.442   c0.888-1.036,1.787-2.072,2.701-3.108C272.478,82.369,272.773,82.714,272.896,83.035z M267.977,77.374   c-0.346-1.8-1.332-3.712-2.961-5.735c-1.899-2.393-3.773-3.552-5.623-3.478c-0.914,0.025-1.838,0.222-2.775,0.592   c-1.036,0.37-1.826,0.864-2.368,1.48c-1.135,1.258-1.702,2.825-1.702,4.699c0,0.938,0.148,1.838,0.444,2.701   c0.518-0.345,1.073-0.518,1.665-0.518c0.641,0,1.609,0.025,2.904,0.074c1.295,0.05,1.832,0.074,1.609,0.074h6.031   C266.434,77.336,267.359,77.374,267.977,77.374L267.977,77.374z"
   style="fill:#000000;fill-opacity:1" />
	<path
   id="path44"
   inkscape:connector-curvature="0"
   fill="#767171"
   d="M302.72,90.693c-0.767,0.346-1.099,0.729-1,1.146   c-0.222,0.025-0.506,0.014-0.851-0.037c-4.959-1.775-8.338-3.107-10.14-3.995c-4.192-2.047-7.485-4.501-9.879-7.363   c-0.369,0.173-0.961,0.494-1.774,0.962c0.442,3.084,1.541,6.18,3.293,9.287c-0.147,0.174-0.383,0.26-0.703,0.26   c-0.124,0.765-0.444,1.146-0.963,1.146c-0.985,0-2.047-1.615-3.183-4.848c-0.493-1.381-0.975-2.787-1.442-4.217   c-0.295-0.049-0.666,0-1.108,0.148c-0.444,0.148-0.741,0.222-0.89,0.222c-0.32,0-0.506-0.259-0.555-0.777h-0.443   c0.023-0.641-0.1-1.307-0.371-1.998c0-0.345,0.357-0.727,1.074-1.147c0.518-0.246,1.035-0.505,1.554-0.777   c-0.074-0.616-0.111-1.714-0.111-3.293c0-1.307,0-2.96,0-4.958c-0.531,0.099-1.244,0.395-2.14,0.888   c-1.063,0.592-1.597,1.147-1.597,1.665c0,0.296,0.234,0.58,0.703,0.851c-0.345,0.74-1.023,1.11-2.035,1.11   c-1.727,0-2.479-0.999-2.257-2.997c0.024-0.271,0.278-0.728,0.759-1.369c0.48-0.641,0.857-1.073,1.129-1.295   c2.787-2.245,5.896-3.28,9.324-3.108c1.108,0.025,2.774,0.074,4.994,0.148c4.588,0.173,7.313,1.456,8.178,3.848   c0.099,0.247,0.099,0.481,0,0.703c-0.174,0.469-0.346,0.938-0.519,1.406c-0.223,0.542-0.493,0.95-0.813,1.221   c-1.012,0.888-2.233,1.924-3.664,3.108c-0.862,0.568-2.133,1.419-3.812,2.553c1.679,1.801,3.701,3.306,6.068,4.514   c1.332,0.69,3.305,1.468,5.92,2.331c2.762,0.913,4.736,1.652,5.92,2.221c0.172,0.098,0.457,0.456,0.853,1.071   C302.386,89.572,302.546,90.027,302.72,90.693L302.72,90.693z M288.216,70.606c-1.998-0.57-4.49-0.855-7.476-0.855   c-0.642,0-1.308,0.013-1.998,0.037c-0.295,3.322-0.442,5.875-0.442,7.659C282.195,75.887,285.501,73.606,288.216,70.606   L288.216,70.606z"
   style="fill:#000000;fill-opacity:1" />
	<path
   id="path46"
   inkscape:connector-curvature="0"
   fill="#767171"
   d="M318.703,90.729c-0.073,0.101-0.26,0.125-0.556,0.074   c-0.247,0.545-0.567,0.815-0.963,0.815c-0.1,0-0.196-0.014-0.295-0.037c-2.123-2.17-4.885-3.86-8.289-5.069l-3.07-1.072   c-1.036-0.345-1.924-0.567-2.663-0.666c-0.198-0.049-0.717-0.172-1.556-0.37c-0.715-0.172-1.282-0.259-1.701-0.259   c-0.616,0-1.049,0.185-1.295,0.555c0.222,0.962,1.085,2.813,2.59,5.551l1.072,1.961c0.494,0.938,0.74,1.676,0.74,2.219   c-0.05,0-0.123,0.014-0.223,0.037h-0.186c-0.246,0.543-0.642,0.826-1.185,0.852c-0.789-0.567-1.948-2.367-3.478-5.401   c-0.223-0.642-0.592-1.554-1.11-2.738c-0.838,1.457-1.554,2.185-2.146,2.185c-0.371,0-0.717-0.261-1.037-0.777   c-0.223-1.332-0.258-2.231-0.11-2.701c0.174-0.542,0.593-1.245,1.258-2.109c0,0.025,0.025,0.074,0.074,0.148   c0.074-0.074,0.147-0.222,0.224-0.444c0.098-0.049,0.209-0.123,0.332-0.222c-0.519-1.726-0.976-3.391-1.369-4.995   c-0.443-1.85-0.666-3.539-0.666-5.069v-3.219c0-0.099,0.037-0.197,0.11-0.296c0.074-0.098,0.111-0.16,0.111-0.185   c0.42,0.024,0.856,0.197,1.313,0.518c0.455,0.321,0.739,0.666,0.851,1.036c0.11,0.37,0.217,1.332,0.313,2.886   c0.148,2.615,0.605,4.773,1.369,6.475c0.246,0.05,0.432,0.025,0.557-0.074c1.133-1.011,3.156-2.417,6.066-4.218   c4.242-2.639,6.82-3.959,7.732-3.959c0.567,0,0.926,0.26,1.074,0.778c0.049,0.198,0.073,0.358,0.073,0.481   c0,0.099-0.014,0.173-0.036,0.222c0.295,0.444,0.442,0.827,0.442,1.148c0,0.074-0.024,0.149-0.074,0.223   c-0.246,0.198-0.579,0.432-0.999,0.704c-3.554,1.655-6.688,3.419-9.4,5.295c1.777,0.539,4.42,1.37,7.927,2.495   c2.909,1.013,5.411,2.533,7.507,4.559C318.111,88.16,318.332,89.049,318.703,90.729L318.703,90.729z"
   style="fill:#000000;fill-opacity:1" />
	<path
   id="path48"
   inkscape:connector-curvature="0"
   fill="#767171"
   d="M61.445,128.988c-0.765,2.146-2.307,3.91-4.625,5.291   c-2.122,1.258-4.329,1.887-6.623,1.887c-1.628,0-3.17-0.319-4.625-0.963c-2.936-1.307-4.403-3.735-4.403-7.289   c0-3.551,1.467-6.782,4.403-9.692c1.85-1.824,3.539-2.774,5.069-2.851c1.134-0.049,2.022,0.148,2.664,0.593   c0.049,0.024,0.234,0.198,0.555,0.52c0.246,0.271,0.431,0.406,0.555,0.406c0.074,0,0.148-0.037,0.222-0.11   c0.049,0.147,0.32,0.356,0.814,0.629c0.592,0.321,0.962,0.53,1.11,0.629c2.343,1.752,3.897,4.084,4.662,6.994   c0.271,1.034,0.407,1.948,0.407,2.737C61.63,128.236,61.568,128.643,61.445,128.988z M57.557,122.18   c-1.286-1.974-3.177-2.959-5.675-2.959c-0.594,0-1.175,0.072-1.744,0.222c-0.124-0.246-0.297-0.47-0.519-0.666   c-1.682,1.012-3.178,2.688-4.488,5.032c-0.916,1.652-1.373,3.402-1.373,5.254c0,1.578,0.556,2.664,1.669,3.257   c0.841,0.469,2.151,0.702,3.932,0.702c3.041,0,5.712-1.098,8.012-3.293c0.939-0.911,1.41-2.071,1.41-3.479   C58.781,124.795,58.373,123.438,57.557,122.18z"
   style="fill:#000000" />
	<path
   id="path50"
   inkscape:connector-curvature="0"
   fill="#767171"
   d="M82.609,130.689c-0.148,0.791-0.531,1.875-1.147,3.256   c-0.568,1.283-1.036,2.172-1.406,2.664c-0.074,0.1-0.346,0.445-0.814,1.037c-0.198,0.246-0.802,1.023-1.813,2.33   c-0.987,1.012-2.023,1.443-3.108,1.295h-0.518c-0.518-0.049-1.123-0.566-1.813-1.553c-0.543-0.791-0.962-1.555-1.258-2.295   c-0.691-1.578-1.727-3.945-3.108-7.104c-0.271-0.593-0.419-1.123-0.444-1.593c-1.357,0.494-2.442,0.791-3.256,0.89   c-0.074-0.025-0.284-0.099-0.629-0.224c-0.173-0.442-0.259-0.853-0.259-1.221c0-0.688,0.431-1.492,1.295-2.404   c-0.79-0.592-2.257-1.715-4.403-3.366c-0.296-0.224-0.53-0.47-0.703-0.74c-0.074-0.074-0.16-0.443-0.259-1.109   c0.025-0.148,0.124-0.494,0.296-1.037c0.395-1.332,1.493-2.355,3.293-3.07c0.715-0.297,2.059-0.641,4.033-1.037   c1.332-0.27,2.775-0.405,4.329-0.405c1.208,0,2.466,0.086,3.774,0.26c3.009,0.396,4.514,1.528,4.514,3.401   c0,1.063-0.296,2.109-0.888,3.146c0.986,0.123,1.665,0.234,2.035,0.332c0.888,0.197,1.517,0.48,1.887,0.852   c0.37,0.369,0.629,0.925,0.777,1.664c0.247,1.16,0.333,1.938,0.259,2.332L82.609,130.689z M76.541,119.329   c-1.208-0.666-2.973-0.998-5.291-0.998c-0.79,0-2.022,0.063-3.7,0.187c-0.888,0.222-1.776,0.443-2.664,0.666   c-1.012,0.271-1.85,0.604-2.516,0.998c2.343,1.826,4.156,3.133,5.439,3.922c1.085-0.346,2.688-0.924,4.81-1.737   C74.173,121.65,75.48,120.639,76.541,119.329z M80.574,127.508c0-0.443-0.025-0.777-0.074-0.998   c-0.173-0.791-1.184-1.187-3.034-1.187c-2.122,0-4.687,0.717-7.696,2.15c0.242,0.939,0.655,2.064,1.236,3.373   c0.349,0.738,0.86,1.846,1.534,3.322c0.197,0.494,0.524,1.227,0.981,2.201c0.457,0.973,0.969,1.397,1.537,1.274   c0.568-0.125,1.333-0.864,2.295-2.221c1.085-1.529,1.839-2.75,2.259-3.662C80.253,130.381,80.574,128.963,80.574,127.508z"
   style="fill:#000000" />
	<path
   id="path52"
   inkscape:connector-curvature="0"
   fill="#767171"
   d="M106.104,127.434c0.049,0.123,0.049,0.356,0,0.703   c-0.025,0.224-0.062,0.469-0.111,0.74c0,1.258-0.45,2.397-1.351,3.422c-0.901,1.022-1.979,1.758-3.237,2.2   c-0.839,0.298-1.764,0.445-2.775,0.445c-2.368,0-4.656-0.537-6.863-1.608c-2.208-1.074-4.015-2.535-5.42-4.386   c-1.752-2.317-2.775-4.797-3.071-7.438c-0.098-0.863-0.148-1.664-0.148-2.404c0-2.047,0.37-3.885,1.11-5.514   c0.419-0.912,1.295-1.801,2.627-2.664c1.208-0.789,2.38-1.318,3.515-1.59c0.814-0.197,1.467-0.297,1.961-0.297   c0.394,0,0.986,0.1,1.776,0.297c0.049-0.025,0.074-0.074,0.074-0.148c0.074,0.074,0.197,0.16,0.37,0.258   c0.024-0.022,0.074-0.049,0.148-0.073c2.096,0.616,4.206,2.381,6.327,5.291c1.899,2.592,3.058,4.946,3.478,7.067   c0.148,0.246,0.308,0.617,0.481,1.109c0.049,0.346-0.013,1.346-0.185,2.998h-0.259c-0.247,0.221-0.666,0.332-1.258,0.332   c-0.419,0-1.054-0.074-1.905-0.223c-0.851-0.146-1.486-0.222-1.906-0.222h-3.478c-3.01,0-5.525-0.073-7.548-0.223   c-0.148,0.147-0.21,0.271-0.185,0.369c2.442,3.135,6.117,4.823,11.026,5.069c1.085,0.049,2.158-0.432,3.219-1.442   c0.888-1.035,1.788-2.072,2.701-3.107C105.684,126.768,105.98,127.113,106.104,127.434L106.104,127.434z M101.183,121.773   c-0.346-1.801-1.332-3.713-2.96-5.736c-1.9-2.391-3.774-3.551-5.624-3.477c-0.913,0.023-1.838,0.221-2.775,0.592   c-1.036,0.369-1.826,0.863-2.368,1.48c-1.135,1.258-1.702,2.824-1.702,4.697c0,0.938,0.148,1.838,0.444,2.701   c0.518-0.345,1.073-0.519,1.665-0.519c0.641,0,1.609,0.024,2.904,0.074c1.295,0.049,1.832,0.073,1.609,0.073h6.031   C99.641,121.736,100.566,121.773,101.183,121.773L101.183,121.773z"
   style="fill:#000000" />
	<path
   id="path54"
   inkscape:connector-curvature="0"
   fill="#767171"
   d="M135.925,135.094c-0.765,0.346-1.098,0.728-0.999,1.146   c-0.222,0.025-0.506,0.013-0.851-0.037c-4.958-1.774-8.338-3.106-10.138-3.996c-4.193-2.047-7.487-4.502-9.879-7.362   c-0.37,0.174-0.962,0.494-1.776,0.963c0.444,3.082,1.541,6.179,3.293,9.287c-0.148,0.172-0.383,0.258-0.703,0.258   c-0.124,0.767-0.444,1.146-0.962,1.146c-0.987,0-2.048-1.614-3.182-4.846c-0.494-1.381-0.975-2.787-1.443-4.219   c-0.296-0.049-0.666,0-1.11,0.148c-0.444,0.147-0.74,0.223-0.888,0.223c-0.321,0-0.506-0.26-0.555-0.777h-0.444   c0.024-0.643-0.099-1.309-0.37-1.998c0-0.346,0.357-0.729,1.073-1.146c0.518-0.248,1.036-0.507,1.554-0.777   c-0.074-0.616-0.111-1.715-0.111-3.293c0-1.309,0-2.961,0-4.959c-0.532,0.101-1.246,0.396-2.141,0.89   c-1.064,0.592-1.596,1.146-1.596,1.664c0,0.297,0.234,0.58,0.703,0.852c-0.345,0.74-1.023,1.109-2.035,1.109   c-1.727,0-2.479-0.998-2.257-2.996c0.025-0.271,0.278-0.728,0.759-1.369c0.481-0.641,0.857-1.072,1.128-1.295   c2.788-2.244,5.895-3.281,9.324-3.107c1.11,0.023,2.775,0.074,4.995,0.146c4.588,0.174,7.313,1.457,8.177,3.85   c0.098,0.246,0.098,0.48,0,0.703c-0.173,0.469-0.346,0.938-0.518,1.404c-0.222,0.543-0.494,0.951-0.814,1.223   c-1.012,0.887-2.233,1.924-3.663,3.107c-0.864,0.565-2.134,1.418-3.811,2.553c1.677,1.801,3.7,3.305,6.068,4.514   c1.332,0.691,3.305,1.469,5.92,2.332c2.762,0.912,4.736,1.652,5.92,2.219c0.172,0.101,0.456,0.457,0.851,1.074   C135.592,133.971,135.752,134.428,135.925,135.094z M121.421,115.006c-1.998-0.57-4.489-0.854-7.474-0.854   c-0.642,0-1.308,0.014-1.998,0.036c-0.296,3.322-0.444,5.875-0.444,7.66C115.402,120.285,118.708,118.006,121.421,115.006z"
   style="fill:#000000" />
	<path
   id="path56"
   inkscape:connector-curvature="0"
   fill="#767171"
   d="M149.504,127.434c0.049,0.123,0.049,0.356,0,0.703   c-0.025,0.224-0.062,0.469-0.111,0.74c0,1.258-0.45,2.397-1.351,3.422c-0.901,1.022-1.979,1.758-3.237,2.2   c-0.839,0.298-1.764,0.445-2.775,0.445c-2.368,0-4.656-0.537-6.863-1.608c-2.208-1.074-4.015-2.535-5.42-4.386   c-1.752-2.317-2.775-4.797-3.071-7.438c-0.098-0.863-0.148-1.664-0.148-2.404c0-2.047,0.37-3.885,1.11-5.514   c0.419-0.912,1.295-1.801,2.627-2.664c1.208-0.789,2.38-1.318,3.515-1.59c0.814-0.197,1.467-0.297,1.961-0.297   c0.394,0,0.986,0.1,1.776,0.297c0.049-0.025,0.074-0.074,0.074-0.148c0.074,0.074,0.197,0.16,0.37,0.258   c0.024-0.022,0.074-0.049,0.148-0.073c2.096,0.616,4.206,2.381,6.327,5.291c1.899,2.592,3.058,4.946,3.478,7.067   c0.148,0.246,0.308,0.617,0.481,1.109c0.049,0.346-0.013,1.346-0.185,2.998h-0.259c-0.247,0.221-0.666,0.332-1.258,0.332   c-0.419,0-1.054-0.074-1.905-0.223c-0.851-0.146-1.486-0.222-1.906-0.222h-3.478c-3.01,0-5.525-0.073-7.548-0.223   c-0.148,0.147-0.21,0.271-0.185,0.369c2.442,3.135,6.117,4.823,11.026,5.069c1.085,0.049,2.158-0.432,3.219-1.442   c0.888-1.035,1.788-2.072,2.701-3.107C149.084,126.768,149.38,127.113,149.504,127.434z M144.583,121.773   c-0.346-1.801-1.332-3.713-2.96-5.736c-1.9-2.391-3.774-3.551-5.624-3.477c-0.913,0.023-1.838,0.221-2.775,0.592   c-1.036,0.369-1.826,0.863-2.368,1.48c-1.135,1.258-1.702,2.824-1.702,4.697c0,0.938,0.148,1.838,0.444,2.701   c0.518-0.345,1.073-0.519,1.665-0.519c0.641,0,1.609,0.024,2.904,0.074c1.295,0.049,1.832,0.073,1.609,0.073h6.031   C143.041,121.736,143.966,121.773,144.583,121.773z"
   style="fill:#000000" />
	<path
   id="path58"
   inkscape:connector-curvature="0"
   fill="#767171"
   d="M167.412,119.377l-1.702,1.661   c-1.924,1.33-4.194,2.154-6.808,2.474c-0.395,0.147-1.012,0.224-1.85,0.224c-4.366,0-7.413-1.429-9.139-4.283   c-0.69-1.156-1.036-2.375-1.036-3.654c0-3.371,2.368-5.771,7.104-7.199c0.395-0.049,0.912-0.16,1.554-0.332   c0.197-0.123,0.333-0.395,0.407-0.813c0.197-0.099,0.32-0.209,0.37-0.332c3.231-0.099,6.302,1.021,9.213,3.358   c1.652,1.847,2.479,3.938,2.479,6.275C168.004,117.766,167.806,118.639,167.412,119.377z M165.525,116.036   c0-1.157-0.839-2.366-2.516-3.625c-1.604-1.184-3.009-1.737-4.218-1.666c-3.256,0.199-5.871,1.16-7.844,2.888   c-0.395,0.346-0.765,0.832-1.11,1.461c-0.346,0.629-0.518,1.19-0.518,1.685c0,0.147,0.024,0.284,0.074,0.407   c0.764,1.851,2.947,2.897,6.549,3.146c0.592,0.049,1.418,0.024,2.479-0.074c0.172-0.049,0.395-0.111,0.666-0.186   c1.332-0.074,3.046-0.752,5.143-2.035C165.093,117.518,165.525,116.852,165.525,116.036z M161.788,140.902   c-0.124,0-0.383,0.129-0.777,0.389c-0.395,0.259-0.654,0.39-0.777,0.39c-0.321,0-0.679-0.272-1.073-0.813   c-0.543-0.74-1.147-2.492-1.813-5.254c-0.074-0.543-0.235-1.519-0.481-2.925c-0.346-1.823-0.518-2.85-0.518-3.069   c0-0.986,0.37-1.541,1.11-1.666c0.74-0.123,1.332,0.408,1.776,1.592c0.172,0.443,0.382,1.307,0.629,2.59   c0.419,2.172,0.715,3.479,0.888,3.922c0.296,0.566,0.616,1.357,0.962,2.369C161.763,138.768,161.788,139.594,161.788,140.902z"
   style="fill:#000000" />
	<path
   id="path60"
   inkscape:connector-curvature="0"
   fill="#767171"
   d="M187.614,126.286c-0.05,0.32-0.247,0.949-0.592,1.888   c-2.467,4.612-5.427,7.571-8.88,8.881c-0.198,0-0.481,0.022-0.851,0.072c-0.37,0.147-0.777,0.223-1.221,0.223   c-2.245,0-4.551-1.332-6.919-3.996c-0.987-1.108-1.48-2.403-1.48-3.885c0-0.765,0.172-1.369,0.518-1.813l0.222-0.037   c0.148-0.024,0.259-0.037,0.333-0.037v0.332c0.493,0,0.875,0.248,1.147,0.74c0.197,0.469,0.407,0.938,0.629,1.406   c0.049-0.023,0.123-0.074,0.222-0.148c-0.173,0.494-0.148,0.89,0.074,1.187c1.307,1.824,2.849,2.736,4.625,2.736   c2.022,0,3.885-1.085,5.587-3.257c2.541-3.229,3.798-5.721,3.774-7.473c-0.247-0.148-0.654-0.223-1.221-0.223   c1.43,0,1.27,0.086-0.481,0.26c-0.148,0.023-2.529,0.246-7.141,0.666c-3.454,0.295-5.859,0.543-7.215,0.74   c-1.752,0.246-2.837,0.369-3.256,0.369c-0.617,0-1.196-0.074-1.739-0.223c-0.296-0.074-0.653-0.283-1.073-0.63   c-0.419-0.344-0.703-0.665-0.851-0.961c-0.395-0.766-0.518-1.555-0.37-2.368c0.42-2.343,1.456-4.896,3.108-7.658   c2.121-3.553,4.316-5.328,6.586-5.328c1.258,0,2.38,0.479,3.367,1.443c0.863,0.862,1.467,1.948,1.813,3.256   c0.296,1.108,0.481,2.725,0.555,4.846c-0.073,0-0.286,0.119-0.639,0.352c-0.353,0.236-0.614,0.352-0.784,0.352   c-0.146,0-0.28-0.061-0.401-0.184c-0.17-0.223-0.414-0.568-0.729-1.037c0-0.172,0-0.356,0-0.555   c-0.099-1.947-0.321-3.279-0.666-3.996c-0.025-0.197-0.074-0.443-0.148-0.74c-0.272-0.395-0.777-0.604-1.517-0.629   c-1.11-0.049-2.208,0.605-3.293,1.961c-0.568,0.717-1.308,1.924-2.22,3.627c-0.617,1.185-1.308,2.824-2.072,4.92   c3.724-0.442,9.669-1.071,17.834-1.887c0.962-0.074,1.751-0.074,2.368,0c0.69,0.1,1.295,0.383,1.813,0.852   c1.011,0.912,1.517,2.222,1.517,3.923C187.947,124.895,187.835,125.572,187.614,126.286L187.614,126.286z"
   style="fill:#000000" />
	<path
   id="path62"
   inkscape:connector-curvature="0"
   fill="#767171"
   d="M210.183,127.434c0.049,0.123,0.049,0.356,0,0.703   c-0.025,0.224-0.062,0.469-0.111,0.74c0,1.258-0.45,2.397-1.351,3.422c-0.901,1.022-1.979,1.758-3.237,2.2   c-0.839,0.298-1.764,0.445-2.775,0.445c-2.368,0-4.656-0.537-6.863-1.608c-2.208-1.074-4.015-2.535-5.42-4.386   c-1.752-2.317-2.775-4.797-3.071-7.438c-0.098-0.863-0.148-1.664-0.148-2.404c0-2.047,0.37-3.885,1.11-5.514   c0.419-0.912,1.295-1.801,2.627-2.664c1.208-0.789,2.38-1.318,3.515-1.59c0.814-0.197,1.467-0.297,1.961-0.297   c0.394,0,0.986,0.1,1.776,0.297c0.049-0.025,0.074-0.074,0.074-0.148c0.074,0.074,0.197,0.16,0.37,0.258   c0.024-0.022,0.074-0.049,0.148-0.073c2.096,0.616,4.206,2.381,6.327,5.291c1.899,2.592,3.058,4.946,3.478,7.067   c0.148,0.246,0.308,0.617,0.481,1.109c0.049,0.346-0.013,1.346-0.185,2.998h-0.259c-0.247,0.221-0.666,0.332-1.258,0.332   c-0.419,0-1.054-0.074-1.905-0.223c-0.851-0.146-1.486-0.222-1.906-0.222h-3.478c-3.01,0-5.525-0.073-7.548-0.223   c-0.148,0.147-0.21,0.271-0.185,0.369c2.442,3.135,6.117,4.823,11.026,5.069c1.085,0.049,2.158-0.432,3.219-1.442   c0.888-1.035,1.788-2.072,2.701-3.107C209.763,126.768,210.059,127.113,210.183,127.434z M205.262,121.773   c-0.346-1.801-1.332-3.713-2.96-5.736c-1.9-2.391-3.774-3.551-5.624-3.477c-0.913,0.023-1.838,0.221-2.775,0.592   c-1.036,0.369-1.826,0.863-2.368,1.48c-1.135,1.258-1.702,2.824-1.702,4.697c0,0.938,0.148,1.838,0.444,2.701   c0.518-0.345,1.073-0.519,1.665-0.519c0.641,0,1.609,0.024,2.904,0.074c1.295,0.049,1.832,0.073,1.609,0.073h6.031   C203.72,121.736,204.645,121.773,205.262,121.773L205.262,121.773z"
   style="fill:#000000" />
	<path
   id="path64"
   inkscape:connector-curvature="0"
   fill="#767171"
   d="M232.42,126.286c-0.05,0.32-0.247,0.949-0.592,1.888   c-2.467,4.612-5.427,7.571-8.88,8.881c-0.198,0-0.481,0.022-0.851,0.072c-0.37,0.147-0.777,0.223-1.221,0.223   c-2.245,0-4.551-1.332-6.919-3.996c-0.987-1.108-1.48-2.403-1.48-3.885c0-0.765,0.172-1.369,0.518-1.813l0.222-0.037   c0.148-0.024,0.259-0.037,0.333-0.037v0.332c0.493,0,0.875,0.248,1.147,0.74c0.197,0.469,0.407,0.938,0.629,1.406   c0.049-0.023,0.123-0.074,0.222-0.148c-0.173,0.494-0.148,0.89,0.074,1.187c1.307,1.824,2.849,2.736,4.625,2.736   c2.022,0,3.885-1.085,5.587-3.257c2.541-3.229,3.798-5.721,3.774-7.473c-0.247-0.148-0.654-0.223-1.221-0.223   c1.43,0,1.27,0.086-0.481,0.26c-0.148,0.023-2.529,0.246-7.141,0.666c-3.454,0.295-5.859,0.543-7.215,0.74   c-1.752,0.246-2.837,0.369-3.256,0.369c-0.617,0-1.196-0.074-1.739-0.223c-0.296-0.074-0.653-0.283-1.073-0.63   c-0.419-0.344-0.703-0.665-0.851-0.961c-0.395-0.766-0.518-1.555-0.37-2.368c0.42-2.343,1.456-4.896,3.108-7.658   c2.121-3.553,4.316-5.328,6.586-5.328c1.258,0,2.38,0.479,3.367,1.443c0.863,0.862,1.467,1.948,1.813,3.256   c0.296,1.108,0.481,2.725,0.555,4.846c-0.073,0-0.286,0.119-0.639,0.352c-0.353,0.236-0.614,0.352-0.784,0.352   c-0.146,0-0.28-0.061-0.401-0.184c-0.17-0.223-0.414-0.568-0.729-1.037c0-0.172,0-0.356,0-0.555   c-0.099-1.947-0.321-3.279-0.666-3.996c-0.025-0.197-0.074-0.443-0.148-0.74c-0.272-0.395-0.777-0.604-1.517-0.629   c-1.11-0.049-2.208,0.605-3.293,1.961c-0.568,0.717-1.308,1.924-2.22,3.627c-0.617,1.185-1.308,2.824-2.072,4.92   c3.724-0.442,9.669-1.071,17.834-1.887c0.962-0.074,1.751-0.074,2.368,0c0.69,0.1,1.295,0.383,1.813,0.852   c1.011,0.912,1.517,2.222,1.517,3.923C232.753,124.895,232.642,125.572,232.42,126.286L232.42,126.286z"
   style="fill:#000000" />
	<path
   id="path66"
   inkscape:connector-curvature="0"
   fill="#767171"
   d="M255.322,138.238c-0.246-0.074-0.567,0.012-0.962,0.258   s-0.642,0.371-0.74,0.371c-0.099,0-0.185-0.024-0.259-0.073c-0.592-0.718-1.32-2.207-2.183-4.478   c-1.184-3.109-1.899-4.922-2.146-5.438c-0.987,0.196-2.467,0.479-4.44,0.852c-1.727,0.347-3.083,0.689-4.07,1.035   c0.32,0.863,1.147,2.679,2.479,5.438c0.888,1.851,1.332,3.22,1.332,4.107c0,0.221-0.025,0.443-0.074,0.666   c-0.247,0-0.407-0.037-0.481-0.111c-0.296,0.519-0.642,0.777-1.036,0.777c-0.444,0-0.827-0.285-1.147-0.852   c-0.617-1.062-1.295-2.541-2.035-4.439c-1.036-2.615-1.715-4.268-2.035-4.959c-0.962,0.197-2.899,0.9-5.809,2.109   c-0.419,0.172-0.925,0.246-1.517,0.223c-0.641-0.74-0.962-1.418-0.962-2.035c0-1.012,0.864-1.875,2.59-2.59   c0.444-0.123,1.887-0.568,4.329-1.332c-0.148-0.691-0.518-1.801-1.11-3.33c-0.543-1.432-0.888-2.566-1.036-3.404   c-0.543-3.106-0.814-4.959-0.814-5.551c0-0.541,0.049-1.072,0.148-1.59c1.036,0.049,1.789,0.48,2.258,1.295   c0.296,0.545,0.518,1.42,0.667,2.629c0.148,1.357,0.296,2.234,0.444,2.629c0.542,1.558,1.357,3.691,2.443,6.406   c2.046-0.471,4.957-1.066,8.73-1.787c-0.543-1.898-1.098-3.996-1.665-6.289c-0.395-1.578-0.617-3.156-0.666-4.736   c-0.025-0.764-0.025-1.221,0-1.368c0.024-0.146,0.172-0.332,0.444-0.556c0.123-0.022,0.234-0.037,0.333-0.037   c0.838,0,1.344,0.42,1.517,1.259c0.567,2.049,1.356,5.131,2.368,9.25c0.172,0.791,0.382,1.356,0.629,1.702   c0.074,0.123,0.333,0.246,0.777,0.369l0.851,0.26c0.222,0.123,0.364,0.363,0.426,0.722c0.061,0.358,0.104,0.697,0.129,1.019   c0.148,0.616,0.209,0.975,0.185,1.073c-0.148,0.099-0.407,0.32-0.777,0.666c0.123,0.689,0.678,2.121,1.665,4.291   c0.888,1.949,1.332,3.479,1.332,4.589C255.434,137.62,255.396,137.941,255.322,138.238L255.322,138.238z"
   style="fill:#000000" />
	<path
   id="path68"
   inkscape:connector-curvature="0"
   fill="#767171"
   d="M276.598,127.434c0.049,0.123,0.049,0.356,0,0.703   c-0.025,0.224-0.063,0.469-0.111,0.74c0,1.258-0.45,2.397-1.352,3.422c-0.9,1.022-1.979,1.758-3.236,2.2   c-0.839,0.298-1.764,0.445-2.775,0.445c-2.367,0-4.656-0.537-6.863-1.608c-2.208-1.074-4.015-2.535-5.42-4.386   c-1.752-2.317-2.775-4.797-3.072-7.438c-0.098-0.863-0.148-1.664-0.148-2.404c0-2.047,0.37-3.885,1.11-5.514   c0.419-0.912,1.295-1.801,2.627-2.664c1.208-0.789,2.38-1.318,3.515-1.59c0.814-0.197,1.468-0.297,1.962-0.297   c0.394,0,0.985,0.1,1.775,0.297c0.049-0.025,0.074-0.074,0.074-0.148c0.074,0.074,0.197,0.16,0.369,0.258   c0.025-0.022,0.074-0.049,0.148-0.073c2.096,0.616,4.205,2.381,6.327,5.291c1.899,2.592,3.058,4.946,3.479,7.067   c0.147,0.246,0.309,0.617,0.48,1.109c0.05,0.346-0.014,1.346-0.186,2.998h-0.26c-0.246,0.221-0.666,0.332-1.258,0.332   c-0.42,0-1.055-0.074-1.905-0.223c-0.851-0.146-1.486-0.222-1.905-0.222h-3.479c-3.01,0-5.525-0.073-7.548-0.223   c-0.147,0.147-0.21,0.271-0.185,0.369c2.441,3.135,6.117,4.823,11.025,5.069c1.086,0.049,2.158-0.432,3.219-1.442   c0.889-1.035,1.789-2.072,2.701-3.107C276.179,126.768,276.473,127.113,276.598,127.434L276.598,127.434z M271.676,121.773   c-0.346-1.801-1.332-3.713-2.959-5.736c-1.9-2.391-3.774-3.551-5.625-3.477c-0.912,0.023-1.838,0.221-2.774,0.592   c-1.036,0.369-1.825,0.863-2.368,1.48c-1.135,1.258-1.702,2.824-1.702,4.697c0,0.938,0.148,1.838,0.444,2.701   c0.518-0.345,1.072-0.519,1.665-0.519c0.642,0,1.609,0.024,2.904,0.074c1.295,0.049,1.831,0.073,1.609,0.073h6.031   C270.135,121.736,271.06,121.773,271.676,121.773z"
   style="fill:#000000" />
	<path
   id="path70"
   inkscape:connector-curvature="0"
   fill="#767171"
   d="M294.507,119.377l-1.703,1.661   c-1.924,1.33-4.193,2.154-6.809,2.474c-0.395,0.147-1.012,0.224-1.85,0.224c-4.366,0-7.413-1.429-9.141-4.283   c-0.688-1.156-1.035-2.375-1.035-3.654c0-3.371,2.367-5.771,7.104-7.199c0.396-0.049,0.912-0.16,1.555-0.332   c0.196-0.123,0.332-0.395,0.406-0.813c0.196-0.099,0.319-0.209,0.37-0.332c3.23-0.099,6.302,1.021,9.213,3.358   c1.652,1.847,2.479,3.938,2.479,6.275C295.098,117.766,294.899,118.639,294.507,119.377L294.507,119.377z M292.618,116.036   c0-1.157-0.839-2.366-2.518-3.625c-1.604-1.184-3.008-1.737-4.217-1.666c-3.256,0.199-5.871,1.16-7.845,2.888   c-0.396,0.346-0.765,0.832-1.11,1.461c-0.345,0.629-0.518,1.19-0.518,1.685c0,0.147,0.023,0.284,0.074,0.407   c0.764,1.851,2.947,2.897,6.549,3.146c0.592,0.049,1.418,0.024,2.479-0.074c0.174-0.049,0.396-0.111,0.666-0.186   c1.332-0.074,3.047-0.752,5.145-2.035C292.186,117.518,292.618,116.852,292.618,116.036L292.618,116.036z M288.882,140.902   c-0.123,0-0.384,0.129-0.777,0.389c-0.396,0.259-0.653,0.39-0.776,0.39c-0.321,0-0.679-0.272-1.073-0.813   c-0.543-0.74-1.146-2.492-1.813-5.254c-0.074-0.543-0.234-1.519-0.48-2.925c-0.346-1.823-0.519-2.85-0.519-3.069   c0-0.986,0.37-1.541,1.11-1.666c0.739-0.123,1.332,0.408,1.774,1.592c0.172,0.443,0.383,1.307,0.629,2.59   c0.42,2.172,0.716,3.479,0.89,3.922c0.295,0.566,0.614,1.357,0.961,2.369C288.856,138.768,288.882,139.594,288.882,140.902   L288.882,140.902z"
   style="fill:#000000" />
	<path
   id="path72"
   inkscape:connector-curvature="0"
   fill="#767171"
   d="M328.211,137.535c0.05,0.148,0.037,0.31-0.036,0.48   c-0.966,0.691-1.584,1.037-1.855,1.037c-3.192-3.152-6.174-6.883-8.944-11.191c-1.253-1.977-3.503-5.879-6.745-11.707   c-0.121,0.469-0.268,2.849-0.437,7.14c-0.024,0.641-0.099,1.727-0.222,3.254c-0.025,0.321-0.088,0.889-0.187,1.7   c0.049,0.814,0.062,2.05,0.037,3.701c-0.024,0.222-0.173,0.455-0.442,0.701c-0.396,0.371-0.605,0.58-0.63,0.629   c-0.198-0.022-0.481-0.074-0.852-0.146c-0.938-0.813-1.689-1.652-2.259-2.519c-3.205-4.932-6.018-9.41-8.436-13.43   c-0.469,1.012-1.344,3.822-2.627,8.436c-0.074,0.617-0.246,1.455-0.518,2.517c-0.051,0.197-0.267,0.42-0.648,0.666   s-0.672,0.371-0.869,0.371c-0.099,0-0.172-0.025-0.222-0.074c-0.468-0.567-0.752-0.948-0.851-1.147   c-0.148-0.32-0.224-0.765-0.224-1.332c0-1.185,0.617-3.638,1.851-7.361c0.739-2.27,1.541-4.785,2.405-7.549   c0.541-0.074,0.912-0.023,1.109,0.148c0.764,0.665,1.604,1.788,2.516,3.366c0.494,0.888,1.233,2.207,2.222,3.959   c0.789,1.354,2.516,3.896,5.18,7.621c0.443-0.985,0.689-3.047,0.74-6.181c0.049-2.489,0.418-6.166,1.108-11.024   c0.173-0.049,0.335-0.073,0.481-0.073c0.912,0,1.861,0.987,2.849,2.961c1.136,2.317,3.416,6.252,6.847,11.803   c1.504,2.44,4.463,6.18,8.879,11.211c0.147,0.147,0.283,0.443,0.408,0.889C328.039,137.029,328.162,137.411,328.211,137.535   L328.211,137.535z"
   style="fill:#000000" />
</g>
<g
   id="layer1"
   transform="translate(-41.084769,-7.378254)">
	<g
   id="g77">
		<path
   id="path3746_8_"
   inkscape:connector-curvature="0"
   fill="#767171"
   d="M503.36,166.243c-1.14-0.268-2.973,0.03-3.664-1.147    c-0.665-1.109,0.21-2.689,1.519-2.642c-0.247-0.498-2.89-5.121-3.12-4.941c-1.046,0.816-1.823,2.41-2.688,3.429    c-0.631,0.744-1.852,1.851-2.111,2.815c-0.819,3.074-3.723,0.777-4.871-0.633c-0.599-0.751-1.331-1.994-0.158-2.606    c0.33-0.173,1.259-0.706,1.643-0.3c0.18,0.175,1.016,0.811,1.168,0.627c1.586-1.902,2.588-4.166,4.387-5.945    c1.772-1.751,1.524-5.241,1.701-7.574c0.084-1.106,0.481-2.484-0.367-3.347c-1.081-1.081-1.186-2.431-1.845-3.719    c-0.554-1.045-0.265-2.297-0.974-3.379c-0.763-1.163-1.459,1.107-1.459,1.72c0,0.678-0.711,1.795-0.945,2.486    c-0.348,1.028-0.568,1.959-1.19,2.839c-0.7,1.003-1.896,1.081-2.834,0.401c-1.525-1.108-1.485,0.087-2.418,0.997    c-0.804,0.784-1.489,1.333-2.692,0.981c-1.138-0.332-2.082-0.952-3.094-1.518c-2.291-1.279-4.524-2.509-6.914-3.604    c-3.768-1.726-7.457-3.542-11.415-4.796c-4.399-1.394-8.791-2.738-13.338-3.558c-3.482-0.629-7.072-1.05-10.581-1.35    c-2.868-0.245-5.785-0.437-8.67-0.467c-1.183-0.013-2.377-0.066-3.559-0.007c-0.452,0.022-0.908,1.766-1.036,2.149    c-0.591,1.742-1.503,3.412-2.188,5.124c-0.623,1.556-0.992,3.675-2.097,4.966c-0.439,0.521-0.392,1.406-1.246,1.397    c-0.791-0.015-1.608-0.601-2.24-1.043c-0.273,0.572-1.146,2.981-2.075,2.204c-0.784-0.672-1.849-1.143-2.759-1.623    c-0.913-0.482-1.727-1.51-2.771-1.167c-1.187,0.39-2.382,0.711-3.585,1.042c-2.843,0.783-5.7,1.188-8.648,1.207    c-2.37,0.015-4.002-1.37-5.549-3.012c-1.079-1.145-2.047-2.273-2.896-3.6c-0.323-0.506-1.28-1.74-1.28-2.344    c0-0.412-7.663-0.476-8.25-0.518c-2.949-0.208-5.9-0.622-8.849-0.76c-3.204-0.15-6.412-0.108-9.619-0.13    c-1.063-0.007-13.782-0.088-13.782,0.154c0-0.048-2.244-0.733-2.244-1.69c0-0.519-0.503-1.138-0.603-1.672    c-0.099-0.535-0.297-1.081-0.457-1.601c-0.639-2.069-1.336-4.315-1.713-6.452c-0.236-1.339,0.464-2.035,1.734-2.114    c0.605-0.038,0.404-0.281,0.309-0.874c-0.118-0.68-0.148-1.511,0.1-2.166c0.409-1.083,2.077-0.847,2.952-1.004    c1.325-0.257,2.674-0.076,3.996-0.275c2.294-0.357,4.77-0.481,7.09-0.536c0.595-0.014,7.849-0.491,7.793-0.655    c-0.219-0.64-1.98-1.085-2.479-1.625c-0.806-0.851-2.221-1.494-3.183-2.177c-1.934-1.371-3.88-3.227-5.296-5.121    c-2.338-3.128-4.233-6.635-5.557-10.313c-0.313-0.874-0.387-1.888-0.641-2.79c-0.35-1.24-0.608-1.292-1.833-1.438    c-1.176-0.142-2.319-0.433-3.503-0.525c-1.021-0.079-2.261-0.017-2.859-1.056c-0.41-0.712-0.21-1.771-0.204-2.543    c0.008-1.259,0.003-2.523,0.065-3.781c0.038-0.789,0.004-2.028,0.339-2.755c0.408-0.886,2.309-0.468,3.013-0.488    c1.164-0.034-0.034-1.742,0.576-2.234c0.116-0.098,0.218-0.33,0.322-0.44c0.324-0.339,0.65-0.167,0.95-0.397    c0.38-0.31,2.042,0.102,2.49,0.166c0.451,0.065,1.748,0.414,1.978-0.052c0.293-0.606,0.633-1.169,0.976-1.733    c0.798-1.309,1.417-2.762,2.237-4.031c0.761-1.175,1.331-2.414,2.281-3.46c0.346-0.38,0.622-0.821,0.988-1.198    c0.224-0.229,0.998-1.278,1.34-1.282c0.282-0.007,1.229-0.99,1.493-1.262c0.198-0.203,1.052-1.037,1.405-1.037    c0.309,0,1.471-1.004,1.693-1.199c0.383-0.338,1.765-0.743,1.935-1.174c-0.005,0.013-1.65-0.661-1.842-0.754    c-0.68-0.33-0.906-0.732-0.938-1.495c-0.029-0.7,0.554-1.525,1.317-1.489c0.539,0.026,1.051,0.585,1.593,0.585    c0.126,0,0.428,0.308,0.557,0.129c0.163-0.226,0.12-0.952,0.174-1.227c0.093-0.479,0.531-1.271,0.531-1.712    c0-0.55,0.434-1.049,0.55-1.568c0.133-0.572,0.284-1.119,0.412-1.689c0.147-0.656,0.364-1.31,0.474-1.963    c0.124-0.743,0.354-0.554-0.347-1.023c-1.105-0.742-1.539-3.115,0.031-3.624c1.075-0.348,2.935,0.261,3.754-0.565    c0.291-0.293,3.01-0.934,3.01-1.263c0-0.092-0.577-0.563-0.662-0.693c-0.208-0.32-0.338-0.706-0.457-1.066    c-0.157-0.475-0.097-1.043-0.107-1.542c-0.01-0.458-0.734-0.519-1.135-0.748c-0.794-0.453-0.776-2.632-0.743-3.411    c0.019-0.463-0.506-0.469-0.815-0.69c-0.404-0.29-0.293-0.986-0.293-1.404c0-0.305,0.508-0.686,0.805-0.706    c0.677-0.047,0.86,0.198,0.878-0.538c0.022-0.948-0.062-1.959,0.733-2.625c0.899-0.752,1.416-1.25,2.756-1.032    c0.524,0.085,0.901,0.31,1.379,0.506c0.188,0.069,0.519,1.426,0.535,1.408c0.383-0.348-0.424-2.246,0.33-2.543    c0.315-0.113,0.764-0.896,1.081-1.12c0.295-0.208,0.716-0.54,1.089-0.54c0.973,0,2.067-0.377,2.898,0.394    c0.668,0.621,0.994,1.706,1.254,2.557c0.287,0.942-0.04,2.295-0.042,3.281c-0.002,1.116,0.686,1.04,1.668,1.375    c1.078,0.367,1.202,1.278,0.673,2.15c-0.258,0.425-0.563,0.59-1.058,0.589c-0.574-0.003-1.017-0.657-1.481-0.657    c-0.069,0-0.825,1.93-0.967,2.138c-0.431,0.63-1.411,1.08-1.718,1.764c-0.308,0.686-0.406,1.746-0.63,2.498    c-0.083,0.278,1.161,0.928,1.43,0.933c0.15,0,0.366,0.323,0.59,0.351c0.823,0.1,1.689,0.033,2.516,0.033    c1.193,0,2.816-0.372,3.523,0.893c0.823,1.468-1.191,2.031-1.294,3.005c0.481,1.694,0.836,3.395,1.55,5.018    c0.233,0.529,0.622,0.963,0.904,1.459c0.007,0.012,1.813-0.698,1.975-0.722c0.84-0.128,1.841,0.086,2.178,0.936    c0.388,0.97-0.508,1.457-1.182,1.935c0.611,0.604,1.768,0.792,2.551,1.138c0.912,0.403,1.788,0.823,2.685,1.269    c2.125,1.049,4.314,2.473,5.655,4.468c0.875,1.274,0.515,2.065-0.633,3.014c-1.187,0.981-2.247,2.098-3.349,3.171    c-0.823,0.796-1.585,1.604-2.822,1.481c-0.712-0.071-1.26-0.446-1.807-0.872c-0.718-0.558-0.763-0.61-1.209,0.046    c-0.654,0.963-1.307,2.237-2.679,1.673c-0.716-0.294-1.211-0.922-1.943-1.2c-0.654-0.243-1.268-0.35-1.927-0.55    c-2.013-0.612-4.136-0.828-6.238-0.823c-2.017,0.004-4.29,0.147-6.167,0.931c-1.803,0.752-3.57,2.393-4.847,3.848    c-0.304,0.346-3.554,5.415-3.05,5.646c0.841,0.387,2.709-0.16,3.57-0.312c1.187-0.208,2.393-0.2,3.582-0.468    c2.621-0.591,5.459-0.712,8.127-1.081c0.886-0.122,2.674-0.662,3.465-0.391c0.391,0.131,1.572-0.393,2.076-0.397    c0.308-0.002,2.399-0.16,2.482,0.067c0.159,0.433,0.609,0.63,0.757,1.162c0.222,0.796,0.229,1.6,0.324,2.412    c0.15,1.267,0.115,2.542,0.21,3.814c0.083,1.107,0.476,2.574,0.17,3.654c-0.176,0.622-0.689,1.122-1.302,1.319    c-0.189,0.062-1.024,0.078-1.019,0.321c0.024,1.113,0.14,2.165-0.35,3.183c-0.616,1.283-2.778,1.072-3.962,1.222    c-1.289,0.162-2.572,0.188-3.86,0.417c-1.178,0.214-2.536,0.054-3.728,0.063c-1.821,0.014-3.644,0.026-5.466,0.015    c-1.175-0.008-2.352,0.021-3.52-0.009c1.142,1.877,3.372,3.562,5.479,4.228c1.075,0.334,2.114,1.028,3.118,1.536    c1.243,0.628,2.428,0.715,3.79,0.922c4.243,0.645,8.158-1.281,11.295-3.944c3.705-3.145,5.678-7.107,7.348-11.575    c0.84-2.248,1.785-4.508,2.391-6.839c0.574-2.21,1.077-4.465,1.599-6.685c0.256-1.09,0.323-2.394,0.405-3.515    c0.063-0.832,0.174-1.896,0.851-2.44c0.641-0.514,1.69-0.611,2.443-0.915c1.556-0.626,0.326-1.936,1.086-3.059    c0.753-1.11,2.237-1.484,3.408-2.038c0.854-0.404,1.681-0.873,2.525-1.298c2.054-1.032,4.104-2.068,6.156-3.103    c1.631-0.822,2.472-0.43,3.708,0.988c0.295,0.339,0.082,1.49,0.084,1.92c0.004,1.021,0.006,2.042,0.017,3.063    c0.019,1.723,0.008,3.431-0.052,5.129c-0.02,0.565-0.238,6.207-0.201,6.207c0.55,0,1.591-1.74,1.984-2.132    c0.519-0.516,1.028-1.041,1.543-1.561c0.081-0.082,1.153-0.899,1.153-1.003c0-0.584,1.609-1.473,2.003-1.854    c0.966-0.915,1.916-1.849,2.92-2.725c3.146-2.744,6.858-4.382,10.83-5.531c0.592-0.171,1.243-0.258,1.824-0.451    c0.321-0.107-0.534-1.202-0.615-1.334c-0.803-1.321-0.877-2.471,0.666-3.117c0.944-0.396,2.479,0.243,3.443,0.462    c0.719,0.17,0.244-0.538,0.136-0.938c-0.156-0.578-0.308-1.098-0.569-1.631c-0.452-0.919-0.626-2.092-0.631-3.109    c-0.007-1.167,0.561-1.625,1.048-2.559c0.472-0.905,1.012-1.798,1.341-2.769c0.262-0.773,1.17-1.762,1.031-2.494    c-0.195-0.377-0.813-1.683-1.193-1.731c-0.126-0.016-0.148,1.831-0.116,2.063c0.138,0.986,0.112,2.542-0.494,3.396    c-0.547,0.77-1.84,1.807-2.786,1.079c-0.313-0.241-1.121-0.822-1.173-1.245c-0.058-0.474-0.083-0.951-0.063-1.428    c0.029-0.671,0.368-0.932,0.604-1.501c0.129-0.326,0.839-0.916,0.839-1.182c0-0.681,0.25-1.392,0.267-2.092    c0.038-1.606-0.576-3.237-0.212-4.85c0.402-1.786,2.517-0.94,3.193,0.175c0.24,0.397,2.409,4.367,2.594,4.307    c0.277-0.09,0.959-1.286,1.106-1.585c0.46-0.94,0.473-1.523,0.423-2.674c-0.086-1.96,1.117-3.768,2.512-5.112    c1.354-1.306,3.516-2.161,4.859-0.404c0.731,0.958,0.546,2.063,0.342,3.175c-0.067,0.4-0.272,0.807-0.434,1.177    c-0.113,0.262-1.051,1.296-0.997,1.521c0.024,0.106,1.149,0.539,1.3,0.673c0.326,0.293,0.543,0.269,0.704,0.762    c0.473,1.444-0.873,1.752-1.959,1.418c-0.308-0.095-1.359-0.79-1.446-0.516c-0.151,0.409-0.645,1.031-1.022,1.225    c-0.487,0.254-3.144,2.063-1.896,2.444c1.76,0.538,3.969,0.653,5.816,0.688c1.016,0.02,1.43,0.171,1.991-0.652    c0.376-0.691,0.244-1.484,0.252-2.283c0.003-0.364,0.322-2.109-0.282-2.265c-0.677-0.174-0.821-2.37-0.576-2.859    c1.277-2.561,5.293-0.701,4.222,1.875c-0.769,1.848-0.706,4.095-1.028,6.148c-0.146,1.025,0.239,2.467-0.858,3.013    c-1.125,0.561-2.894,0.062-4.073-0.102c-1.976-0.274-3.91-0.64-5.858-1.047c-0.272-0.057-1.178-0.374-1.38-0.101    c-0.397,0.539-0.705,1.152-1.025,1.738c-0.291,0.515-0.736,1.127-0.878,1.708c-0.134,0.565,0.049,1.031-0.025,1.569    c1.101-0.077,2.268-0.252,3.332-0.541c0.608-0.165,1.384-0.324,1.943-0.61c0.318-0.164,0.542-0.456,0.818-0.676    c0.221-0.176,0.717-0.278,0.886-0.451c0.528-0.54,1.747-0.121,2.275,0.103c1.338,0.568,1.267,1.659,0.659,2.916    c-1.253,2.596-0.881,5.372-1.195,8.16c-0.041,0.361-0.064,0.719-0.064,1.085c0,0.489,0.195,0.257,0.619,0.31    c1.073,0,2.144,0.235,2.322,1.487c0.224,1.567-1.019,1.225-2.108,1.188c-0.602-0.021-2.387,0.266-2.86-0.125    c-0.759-0.625-0.603-1.302-0.599-2.261c0.006-1.859,0.026-3.717,0.042-5.576c0.001-0.227,0.181-2.799-0.035-2.855    c-0.351-0.092-0.941,0.168-1.267,0.25c-0.808,0.205-1.631,0.33-2.438,0.532c-0.515,0.128-0.996,0.32-1.524,0.408    c-0.313,0.051-1.415,0.072-1.622,0.305c-0.313,0.353,1.428,2.647,1.701,3.177c0.369,0.716,1.041,1.405,1.033,2.254    c-0.016,0.75-0.642,1.329-1.133,1.832c0.901,0.549,1.906,0.644,2.783,1.286c1.147,0.841,2.188,1.813,3.169,2.841    c0.743,0.78,1.109,1.965,1.862,2.674c0.754,0.692,1.429,2.056,1.95,2.916c0.597,0.985,1.124,2.02,1.604,3.066    c0.533,1.162,1.305,2.467,1.561,3.729c0.109,0.562,2.143,7.514,1.898,7.594c0.358-0.117,0.727-1.301,0.887-1.602    c0.293-0.55,0.623-1.077,0.905-1.633c0.52-1.033,1.117-2.06,1.768-3.007c0.714-1.041,1.146-2.268,1.843-3.313    c0.341-0.487,0.599-1.015,0.911-1.519c0.269-0.433,0.573-1.707,0.966-1.912c0.627-0.328,0.674-1.359,1.171-1.779    c0.608-0.497,1.104-1.847,1.569-2.507c1.029-1.461,1.921-3.055,3.018-4.499c0.705-0.928,1.356-1.838,2.11-2.717    c0.507-0.59,1.438-2.033,2.378-1.857c0.586,0.109,1.279,0.588,1.782,0.903c0.458,0.282,0.666-0.455,0.922-0.774    c0.252-0.314,0.392-0.717,0.628-1.054c0.163-0.231,1.298-1.108,1.298-1.304c0-0.846,6.612,0.524,7.335,0.685    c1.17,0.259,2.313,0.614,3.468,0.912c1.195,0.309,2.662,0.55,3.763,1.133c0.907,0.476,1.9,0.679,2.637,1.438    c1.006,1.037,0.023,2.042-0.887,2.81c-1.354,1.141-2.683,2.428-3.813,3.792c-1.764,2.127-3.842,3.984-5.466,6.22    c-1.63,2.245-3.452,4.348-5.095,6.583c-3.011,4.097-5.829,8.3-8.505,12.633c-1.294,2.097-2.457,4.265-3.771,6.342    c-0.607,0.959-1.313,1.871-1.866,2.865c-0.305,0.546-0.629,1.076-0.96,1.606c-0.308,0.491-0.64,1.621-1.133,1.88    c-1.308,0.699-3.221-1.066-4.011-0.155c-0.165,0.189-1.608,1.516-1.402,1.758c0.348,0.438,1.569,0.769,2.047,0.941    c0.907,0.329,2.713,0.822,3.38,1.55c0.993,1.084-0.568,2.565-1.28,3.487c-1.014,1.312-2.046,2.621-3.007,3.971    c-0.512,0.711-2.352,2.184-2.383,3.081c-0.018,0.488-0.069,0.808,0.245,1.104c0.625,0.337,1.475,0.568,2.153,0.758    c0.523,0.151,3.464,1.752,3.816,1.432c0.089-0.089-0.354-1.613-0.315-1.918c0.052-0.407,0.507-1.129,0.947-1.218    c1.147-0.233,2.121,0.351,3.106,0.858c-0.059-0.841-0.023-1.708-0.26-2.521c-0.384-1.317,0.409-2.391,1.764-2.628    c2.693-0.472,4.309,2.37,5.976,3.977c0.936,0.9,2.287,1.809,2.967,2.935c0.316,0.524,0.311,0.257,0.691-0.192    c0.435-0.515,0.884-1.056,1.155-1.681c0.331-0.847,1.186-2.175,2.026-2.565c0.968-0.45,2.755-0.424,3.54,0.384    c0.698,0.707,1.045,2.146,0.59,3.057c-0.38,0.751-1.971,1.964-1.145,2.766c0.708,0.689,1.328,2.281-0.126,2.531    c-1.077,0.185-1.924-0.838-2.957-0.574c-2.171,0.554,1.718,5.539,2.391,6.413c0.486,0.633,1.089,1.162,1.619,1.756    c0.231,0.259,0.744,0.664,0.835,0.981c0.122,0.423-0.347,0.778-0.6,1.029c-0.312,0.311,0.171,1.271,0.311,1.587    c0.156,0.354,1.353,2.949,1.581,2.861c0.903-0.35-0.793-2.21-0.277-2.726c0.43-0.43,0.09-0.884,0.871-0.863    c0.104,0.002,1.32,0.121,1.293,0.156c0.544-0.63,0.87-1.545,1.6-1.965c0.758-0.437,2.08-1.053,2.926-0.431    c2.126,1.565,0.896,4.33-0.307,6.04c-0.957,1.361-2.097,2.417-3.305,3.551c-0.75,0.705-0.991,0.723-0.991,1.761    c0,2.127,0.126,4.239,0.124,6.367c0,0.499,0,0.998-0.001,1.497c0,0.288-0.255,1.375-0.08,1.619    c0.676,1.054,1.191,2.226,1.755,3.34c0.528,1.048,1.146,2.062,1.649,3.118c0.385,0.847,1.118,1.426,1.563,2.183    c0.471,0.8,1.427,2.718-0.003,3.196C504.795,166.361,504.001,166.343,503.36,166.243z M402.486,141.754    c1.686-0.21,3.662-1.287,5.089-2.155c0.744-0.452,1.336-0.903,1.916-1.563c0.101-0.113,1.682-2.456,1.643-2.474    c0.721,0.301,4.392-12.374,4.526-13.781c0.15-1.998,1-3.938,1.015-5.937c0.004-1.057-0.009-2.248,0.247-3.253    c0.248-0.972,0.01-2.057,0.176-3.022c0.435-2.533,0.089-5.128,0.187-7.677c0.088-2.305,0.616-4.682,0.705-6.998    c0.12-3.089,0.505-6.202,0.484-9.276c-0.012-1.428,0.414-2.829,0.437-4.225c0.029-1.828,0.073-3.639,0.171-5.458    c0.281-5.183,0.265-10.39,0.277-15.595c-0.973-0.104-2.104,0.809-2.992,1.156c-0.891,0.35-1.814,0.75-2.656,1.208    c-2.165,1.177-4.614,2.096-4.748,4.931c-0.049,1.083-0.437,2.178-0.654,3.236c-0.214,1.042-0.372,2.119-0.767,3.11    c-0.313,0.785-0.5,1.647-0.743,2.456c-0.312,1.038-0.6,2.51-1.121,3.431c-1.021,1.987-1.416,4.347-2.656,6.217    c-0.567,0.838-0.851,1.975-1.33,2.883c-0.61,1.137-1.391,2.181-2.066,3.278c-2.502,4.064-5.263,8.203-9.46,10.787    c-1.877,1.155-3.482,2.034-5.603,2.671c-2.724,0.816-4.979,0.469-7.742,0.291c-1.273-0.081-2.531-0.593-3.7-1.079    c-1.086-0.466-2.415-0.791-3.379-1.493c-1.92-1.456-3.711-2.651-5.19-4.558c-1.138-1.465-1.927-2.955-2.804-4.573    c-0.601-1.158-1.541-4.508,0.214-4.986c1.817-0.495,3.961,0.185,5.796,0.23c2.453,0.062,4.8,0.363,7.236,0.249    c2.805-0.131,5.698-0.067,8.448-0.707c1.161-0.271,2.536-0.56,3.597-1.109c0.428-0.223-0.173-2.418-0.142-2.858    c0.042-0.659,0.136-3.278-0.315-3.748c-0.404-0.421-2.136,0.272-2.726,0.302c-2.764,0.127-5.524,0.752-8.267,1.052    c-2.668,0.292-5.337,0.544-8.007,0.84c-1.349,0.149-2.755,0.06-4.107,0.042c-1.413-0.019-1.859-0.365-1.859-1.875    c0-1.084,0.713-2.146,0.713-3.195c0-0.403,0.521-1.113,0.715-1.468c0.357-0.655,0.446-1.436,0.9-2.046    c1.132-1.557,2.013-3.145,3.455-4.482c1.679-1.557,3.483-2.735,5.576-3.648c0.863-0.385,2.431-0.834,3.381-0.848    c1.288-0.037,2.699-0.592,3.996-0.763c4.16-0.55,9.025-0.011,12.684,2.084c0.496,0.303,1.792,1.39,2.22,0.985    c0.913-0.864,1.771-1.956,2.788-2.689c0.376-0.273-1.49-1.482-1.975-1.698c-0.278-0.128-0.566-0.655-0.871-0.655    c-0.395,0-1.535-0.742-1.922-0.998c-1.785-1.201-4.041-1.62-6.054-2.262c-1.33-0.424-2.337-0.484-3.752-0.487    c-2.209-0.006-4.732-0.349-6.921,0.07c-1.936,0.371-4.346,0.579-6.104,1.483c-1.055,0.543-2.075,1.127-3.058,1.792    c-1.024,0.694-1.777,1.689-2.743,2.413c-0.42,0.314-1.173,1.405-1.623,1.514c-0.285,0.073-1.783,1.768-1.783,1.983    c0,0.234-0.958,1.097-1.081,1.263c-0.373,0.501-0.764,0.99-1.144,1.486c-0.824,1.058-1.444,2.359-2.01,3.571    c-0.703,1.521-1.812,3.666-1.934,5.372c-0.066,0.937,0.345,2.179-0.899,2.223c-1.331,0.047-2.709-0.113-4.03-0.26    c-1.173-0.148-2.282-0.271-3.424-0.577c-1.031-0.277-0.967,1.343-1.053,2.158c-0.067,0.691-0.217,1.394-0.287,2.095    c-0.059,0.584,0.064,0.462,0.599,0.467c1.763,0.019,3.528-0.019,5.291,0.035c0.713,0.021,2.474,0.358,2.474,1.253    c0,0.744,0.084,1.553,0.265,2.279c0.577,2.315,0.819,4.676,1.739,6.908c0.946,2.296,2.574,4.628,4.448,6.254    c0.735,0.639,1.319,1.407,2.12,2.003c0.809,0.597,1.774,1.262,2.506,1.953c0.823,0.737,1.921,1.289,2.834,1.923    c0.374,0.26,0.791,0.498,1.189,0.719c0.414,0.229,1.472,0.44,1.753,0.79c0.338,0.389,0.994,0.326,1.398,0.574    c0.371,0.224,0.84,0.448,1.258,0.572c1.072,0.314,2.113,0.886,3.193,1.141c2.256,0.532,4.353,0.987,6.655,1.242    c1.192,0.133,2.521,0.237,3.721,0.098c1.077-0.125,2.684-0.175,3.662-0.638c0.776-0.377,1.631-0.588,2.418-0.967    c0.434-0.21,1.771-1.393,2.151-1.393c0.385,0,1.85-1.803,2.19-2.144c0.709-0.71,1.256-1.462,1.77-2.316    c0.435-0.722,0.853-1.591,1.334-2.271c0.443-0.618,0.58-2.885,1.379-3.155c0.103-0.046,0.225-0.339,0.304-0.415    c0.247-0.238,0.572-0.218,0.874-0.34c0.593-0.237,1.154,0.014,1.664,0.312c0.952,0.558,1.379,1.274,1.97,2.206    c0.492,0.772,1.096,1.435,1.591,2.209c0.602,0.94,1.092,1.944,1.451,3.005c0.488,1.444,0.557,2.966,0.627,4.457    c0.123,2.628,0.279,5.371,0.075,7.996c-0.101,1.299-0.271,2.733-0.633,3.983c-0.207,0.713-0.324,2.154-0.839,2.706    c-0.427,0.441-0.547,1.407-0.918,1.946c-0.29,0.419-0.665,0.869-1.018,1.24c-0.934,0.987-1.729,2.067-2.997,2.62    c-1.121,0.489-2.184,0.605-3.298-0.066c-0.42-0.253-0.53-0.662-0.938-0.917c-0.231-0.145-1.175-0.885-1.135-1.146    c0.071-0.47-0.481-1.241-0.518-1.766c-0.047-0.677,0.056-1.406,0.078-2.084c0.037-1.097,0.327-2.079,0.716-3.091    c0.891-2.313,2.329-4.243,3.478-6.409c0.499-0.899,1.188-1.706,1.794-2.524c0.576-0.78,0.997-1.692,1.592-2.477    c0.236-0.31,1.411-1.739,1.157-2.064c-0.764-0.979-1.852-1.685-2.558-2.707c-0.311-0.45-0.414-0.836-0.854-0.361    c-0.459,0.492-0.846,1.026-1.269,1.547c-0.834,1.028-1.615,2.071-2.38,3.154c-3.506,4.969-6.677,10.275-7.196,16.478    c-0.129,1.533-0.484,3.452,0.071,4.937c0.544,1.448,1.044,2.622,1.904,3.938C396.409,140.688,399.087,142.091,402.486,141.754z     M487.988,140.904c0.567-1.079,0.875-2.328,1.302-3.467c0.428-1.139,1.241-2.705,1.261-3.931c0.012-0.455-1.717-1.067-2.05-1.363    c-0.898-0.796-2.024-1.348-3.049-1.955c-0.933-0.554-1.851-1.118-2.79-1.663c-0.451-0.262-2.744-1.743-3.112-1.508    c-0.36,0.229-3.003-1.23-3.475-1.423c-1.216-0.494-2.536-0.83-3.719-1.382c-1.327-0.578-2.623-0.86-4.015-1.238    c-1.12-0.305-2.112-0.931-3.226-1.273c-2.447-0.755-4.761-1.681-7.271-2.251c-2.436-0.554-4.858-1.091-7.295-1.64    c-1.29-0.291-2.574-0.573-3.857-0.898c-1.132-0.281-2.758-0.2-3.763-0.691c-0.731-0.358-1.829-0.246-2.633-0.401    c-0.816-0.158-1.716-0.084-2.54-0.096c-3.295-0.047-6.456-0.621-9.727-0.899c-1.396-0.123-2.805-0.342-4.207-0.498    c-1.142-0.127-2.438-0.367-3.566-0.297c-0.176,0.009-0.572,3.184-0.596,3.581c-0.084,1.443-0.04,2.967,0.377,4.358    c0.176,0.585,0.393,1.729,1.082,1.971c0.769,0.27,1.949,0.054,2.737,0.054c2.615-0.003,5.143,0.058,7.748,0.144    c2.673,0.087,5.296,0.194,7.948,0.48c0.999,0.107,2.096,0.241,3.061,0.531c1.448,0.443,3.001,0.352,4.483,0.636    c1.616,0.311,3.203,0.757,4.829,1.014c2.136,0.338,4.193,1.195,6.318,1.524c1.455,0.252,2.993,0.743,4.335,1.375    c0.75,0.353,1.934,0.229,2.616,0.699c0.697,0.527,1.854,0.727,2.653,1.076c1.708,0.747,3.465,1.425,5.221,2.018    c1.396,0.475,3.161,1.22,4.365,2.063C478.359,136.183,488.026,140.833,487.988,140.904z M418.054,139.251    c0.475-0.984,0.785-2.033,1.231-3.028c0.427-0.952,1.104-2.199,1.244-3.246c0.085-0.615,1.581-2.972,0.765-3.36    c-0.341-0.162-3.629-1.502-3.719-1.221c-0.74,2.3-1.307,4.614-2.115,6.902c-0.199,0.564-0.357,1.263-0.662,1.775    c-0.403,0.686-0.599,0.97,0.127,1.376c0.517,0.29,1.247,0.655,1.838,0.743C417.372,139.285,417.712,139.953,418.054,139.251z     M490.523,129.62c-0.055-0.177-1.729-4.037-1.976-4.037c-0.034,0-0.797,2.244-0.737,2.345c0.237,0.393,1.102,0.8,1.476,1.064    C489.461,129.117,490.596,129.882,490.523,129.62C490.502,129.551,490.547,129.704,490.523,129.62z M386.162,128.688    c0.212-0.347,0.024-0.873,0.231-1.218c0.283-0.399,0.414-1.153,0.51-1.643c0.17-0.931,0.352-1.855,0.607-2.754    c0.215-0.752,0.356-1.629,0.692-2.334c0.307-0.633-0.346-0.549-0.813-0.676c-0.689-0.186-1.463-0.271-2.173-0.331    c-2.951-0.245-6.045-0.01-8.971-0.417c-1.724-0.239-3.481-0.381-5.232-0.413c-5.226-0.098-10.317,0.162-15.502,0.655    c-2.649,0.252-5.386,0.044-8.008,0.555c-0.748,0.146-0.083,1.683,0.223,2.142c0.594,0.854,0.823,2.241,1.095,3.226    c0.106,0.39,0.234,2.02,0.562,2.108c0.554,0.134,1.546-0.188,2.106-0.25c1.632-0.181,3.291-0.152,4.931-0.156    c4.106-0.011,8.214-0.051,12.32-0.054c2.955-0.002,5.925,0.346,8.858,0.619c1.413,0.131,3.048,0.162,4.421,0.455    C382.47,128.308,385.988,128.965,386.162,128.688z M401.412,127.986c0.189-0.157,0.69-1.201,0.699-1.201    c0.13,0,0.535-1.331,0.571-1.625c0.414-3.407-2.008,3.108-1.525,2.987C401.242,128.093,401.327,128.039,401.412,127.986z     M483.968,125.13c0.533-0.424,0.912-0.239,1.281-0.788c0.57-0.847,1.45-1.109,0.579-1.969c-0.75-0.741-1.571-1.464-2.39-2.128    c-0.496-0.403-1.772-1.942-2.46-1.942c-0.035,0,0.469,3.733,0.59,4.253c0.118,0.502,0.246,1.039,0.273,1.549    C481.872,124.473,483.696,125.346,483.968,125.13C484.361,124.818,483.771,125.286,483.968,125.13z M465.43,116.374    c0.534-1.337,2.036-2.267,2.64-3.604c0.271-0.599,0.851-1.023,1.168-1.597c0.29-0.522,1.137-1.179,1.173-1.803    c0.004-0.087-1.689-0.956-1.703-0.963c-0.809-0.468-1.908-0.741-2.648-1.293c-0.611-0.46-2.688,3.704-3.02,4.273    c-0.425,0.732-0.853,1.456-1.354,2.141c-0.159,0.217-0.74,0.774-0.74,1.065c0,0.215,0.879,0.408,1.035,0.486    C462.562,115.373,464.921,116.8,465.43,116.374z M453.284,115.096c0.174-0.207,1.686-3.511,1.465-3.718    c0.161,0.156-5.391,2.729-5.391,2.859C449.358,114.204,453.097,115.337,453.284,115.096z M438.339,112.684    c2.354-0.319,4.881-0.255,7.136-1.069c1.91-0.69,3.638-1.518,5.497-2.326c1.721-0.73,3.751-2.375,5-3.789    c0.973-1.099,1.871-1.95,2.635-3.203c0.67-1.045,1.207-2.146,1.835-3.214c1.103-1.876,1.532-3.799,2.194-5.837    c0.494-1.445,0.496-2.987,0.936-4.437c0.359-1.188,0.322-2.204,0.286-3.41c-0.067-2.199,0.065-4.646-0.662-6.753    c-0.329-0.912-0.499-1.875-0.85-2.783c-0.152-0.394-0.383-0.755-0.535-1.156c-0.143-0.375-0.645-1.075-0.645-1.436    c0-0.672-0.974-1.596-1.294-2.172c-0.506-0.913-1.115-1.906-1.855-2.624c-1.699-1.75-3.139-3.687-5.049-5.255    c-3.656-3.001-8.666-2.093-12.191,0.695c-1.985,1.556-4.139,2.938-5.805,4.836c-0.522,0.595-1.08,1.156-1.592,1.762    c-0.223,0.264-0.813,0.712-0.96,0.975c-0.501,0.826-1.42,1.531-1.983,2.366c-1.528,2.26-2.861,4.5-4.104,6.928    c-0.449,0.877-0.948,1.706-1.438,2.557c-0.378,0.659-0.757,1.291-1.186,1.919c-0.348,0.511-0.879,1.796-1.47,2.059    c-0.276,0.126-1.111,1.443-1.19,1.668c-0.194,0.55-0.001,1.505-0.001,2.088c0,1.078,0,2.156-0.025,3.233    c-0.01,0.401-0.24,2.635,0.087,2.847c0.154,0.095,2.059-1.985,2.516-2.021c1.993-0.157,2.004,1.388,2.105,2.9    c0.17,2.535,0.812,4.871,1.654,7.257c0.426,1.204,1.088,2.304,1.88,3.304c0.895,1.13,1.767,2.585,3.022,3.345    C434.013,112.98,436.375,112.954,438.339,112.684z M439.872,103.182c-0.981-0.145-1.938-0.163-2.873-0.573    c-1.158-0.509-1.72-1.354-2.462-2.337c-0.703-0.931-1.039-1.911-1.37-3.022c-0.272-0.892-0.661-2.241-0.627-3.157    c0.043-1.136,0.245-2.249,0.385-3.373c0.123-1.033,0.607-2.857,1.287-3.613c0.683-0.822,1.128-2.074,1.701-2.994    c0.692-1.11,1.855-1.966,2.505-3.049c1.231-1.97,3.429-3.646,5.267-5.012c1.805-1.341,3.984-1.558,6.169-1.406    c1.445,0.1,4.194,1.945,4.194,3.612c0,0.506,0.428,1.153,0.501,1.688c0.114,0.842,0.095,1.694,0.177,2.539    c0.09,0.93-0.007,1.762-0.197,2.678c-0.735,3.532-1.799,7.162-3.797,10.224c-1.267,1.939-2.453,3.526-4.236,5.033    C444.728,101.902,442.301,103.538,439.872,103.182z M439.682,99.945c1.302-0.465,3.802-3.233,3.802-4.787    c0-0.636,0.666-1.444,0.87-2.088c0.337-1.065,0.789-2.074,1.204-3.109c0.292-0.729,0.493-1.64,0.859-2.314    c0.302-0.597,0.854-3.089,0.566-3.669c-0.505-0.899-0.002-2.568-0.296-3.614c-0.192-0.682-1.387-1.869-2.012-1.47    c-1.516,0.966-3.027,2.243-4.18,3.618c-0.914,1.091-1.674,2.33-2.44,3.526c-0.283,0.442-0.75,1.842-1.132,2.075    c-0.377,0.219-0.772,1.774-0.872,2.244c-0.255,1.217-0.425,2.685-0.33,3.922C435.844,95.859,437.509,100.716,439.682,99.945z     M422.576,111.215c0-0.83-0.961-1.979-1.23-2.744c-0.092-0.262-0.514-1.935-0.741-1.935c-0.517-0.013-0.432,3.733-0.404,4.068    c0.075,0.905,0.178,0.749,1.209,0.741C421.775,111.345,422.415,111.452,422.576,111.215z M462.157,104.88    c0.204-0.274,0.605-0.733,0.713-1.07c0.072-0.228-0.904-0.415-1.024-0.27c-0.31,0.372-0.53,0.848-0.746,1.281    C460.91,105.202,461.907,105.222,462.157,104.88C462.297,104.693,462.02,105.068,462.157,104.88z M473.555,99.544    c0.396-0.916,1.133-1.638,1.576-2.526c0.265-0.529,1.247-1.742,1.247-2.25c0-0.52,1.199-2.001,1.464-2.438    c0.548-0.9,1.071-1.874,1.731-2.69c1.268-1.477,1.895-3.402,3.168-4.885c1.417-1.65,2.364-3.711,3.654-5.457    c2.121-2.87,4.078-5.908,6.369-8.652c0.724-0.867,1.442-1.736,2.103-2.658c0.278-0.389,0.622-0.728,0.955-1.069    c0.176-0.18,1.061-1.381,1.291-1.381c0.642,0,1.805-2.021,2.279-2.492c0.527-0.532,0.883-1.206,1.429-1.716    c0.351-0.329,1.082-0.762,1.219-1.273c0.026-0.098-6.533-1.917-7.066-2.019c-0.764-0.146-3.158-0.923-3.802-0.364    c-1.045,0.908-2.053,2.162-2.767,3.346c-2.278,3.822-5.28,7.302-7.319,11.281c-1.137,2.223-2.677,4.255-3.838,6.483    c-1.153,2.212-2.518,4.286-3.617,6.527c-0.893,1.817-2.298,3.754-2.787,5.711c-0.531,2.127-2.13,3.935-2.549,6.102    c-0.091,0.475,2.103,1.37,2.534,1.643C471.323,99.079,473.181,100.426,473.555,99.544    C473.642,99.341,473.388,99.937,473.555,99.544z M367.614,59.347c0.88-0.423,1.682-0.994,2.641-1.251    c0.636-0.166,1.218-0.357,1.873-0.462c0.526-0.082-0.177-0.88-0.26-1.121c-0.055-0.179-2.17-4.554-2.201-4.522    c-0.33,0.349-0.483,1.338-0.615,1.839c-0.191,0.744-0.583,1.419-0.797,2.154c-0.114,0.39-1.092,3.538-1.063,3.538    C367.338,59.475,367.478,59.417,367.614,59.347z M449.658,58.563c-0.229-0.216-1.109-0.458-1.463-0.455    c-0.785,0.016-1.544-0.611-2.327-0.611c0.062,0.002,0.521,0.638,0.568,0.697c0.353,0.269,0.293,0.288,0.795,0.293    C447.64,58.493,449.424,58.328,449.658,58.563z M378.039,56.793c0.105-0.012,0.212-0.025,0.317-0.037    c-0.336-0.522-0.678-1.041-1.023-1.557c-0.427-0.637-0.58-1.198-0.841-0.27c-0.079,0.28-0.549,1.741-0.278,1.908    C376.578,57.061,377.631,56.839,378.039,56.793z M384.24,56.782c0.077-0.063,0.683-0.04,0.683-0.123    c0-0.335-0.751-1.078-0.928-1.326c-0.363-0.509-0.445-0.211-0.68,0.271c-0.106,0.221-0.616,1.003-0.407,1.289    C382.977,56.989,384.21,56.804,384.24,56.782C384.27,56.757,384.207,56.806,384.24,56.782z M380.714,52.608    c0.274-0.815,1.267-3.353,0.642-4.08c-0.342-0.399-2.992-2.524-2.913-1.324c0.081,1.227,0.789,2.465,0.789,3.674    C379.231,51.384,380.292,53.877,380.714,52.608z M373.688,50.059c-0.006-0.774,0.085-1.638-0.061-2.406    c-0.083-0.44-1.81,0.54-2.032,0.676c-1.467,0.895,1.954,4.219,2.052,4.161C373.908,52.32,373.69,50.322,373.688,50.059    C373.675,48.079,373.697,51.612,373.688,50.059z M375.43,42.256c0.081-0.552,0.367-1.261,0.681-1.733    c0.181-0.275,0.59-0.892,0.605-1.204c0.02-0.379-0.385-0.396-0.385-0.77c0-0.431-0.327-0.854-0.379-1.288    c-0.065-0.545-0.079-1.097-0.1-1.645c0.008,0.193-0.107-0.998-0.147-0.941c-0.32,0.453-0.268,1.486-0.322,2.044    c-0.092,0.83-0.476,2.27-1.072,2.845c-0.095,0.09-0.462,0.627-0.485,0.791c-0.01,0.065,0.636,0.878,0.677,0.863    c-0.023,0.01,0.642,1.517,0.752,1.734C375.327,42.726,375.393,42.492,375.43,42.256z M405.395,62.177    c-0.801-0.196-0.813-1.195-0.82-1.849c-0.019-1.454-0.162-2.856-0.272-4.277c-0.171-2.203-0.321-4.541-0.96-6.666    c-0.372-1.23-0.32-2.611-0.597-3.864c-0.257-1.167-0.521-2.28-0.731-3.455c-0.416-2.319-0.85-4.612-1.298-6.915    c-0.436-2.243-1.133-4.359-1.645-6.581c-0.263-1.177-0.908-2.386-0.959-3.591c-0.052-1.242,0.826-1.603,1.739-2.068    c0.28-0.13,1.123-0.273,0.839-0.76c-0.194-0.386-0.313-0.846-0.438-1.258c-0.109-0.365-0.772-1.34-0.012-1.571    c0.424-0.142,0.462-0.632,0.998-0.632c0.554,0,1.192-0.447,1.665-0.702c0.624-0.337,1.36-0.588,2.025-0.839    c0.981-0.37,1.947-0.812,2.938-1.166c2.011-0.714,4.12-1.272,6.069-2.192c1.835-0.866,4.052-1.361,5.769-2.468    c0.403-0.26,0.983-0.286,1.409-0.533c0.578-0.336,1.106-0.714,1.707-1.021c1.073-0.541,2.149-1.102,3.286-1.51    c0.774-0.279,1.952-1.013,2.34,0.163c0.401,1.217-0.314,2.714-0.54,3.921c-0.822,4.417-1.352,8.98-2.563,13.307    c-1.28,4.577-1.854,9.318-2.849,13.972c-0.53,2.484-0.939,4.945-1.373,7.44c-0.438,2.564-1.063,5.085-1.316,7.665    c-0.08,0.821-1.094,1.411-1.747,1.764c-1.713,0.926-3.468,1.775-5.205,2.651c-1.507,0.759-3.013,1.518-4.517,2.284    C407.258,61.978,406.639,62.406,405.395,62.177z M410.938,55.297c0.764-0.446,1.792-0.556,2.637-0.807    c0.672-0.2,1.383-0.232,2.053-0.439c0.743-0.236,0.556-0.441,0.667-1.256c0.323-2.372,0.947-4.679,1.39-7.024    c0.429-2.274,0.877-4.698,1.576-6.894c0.745-2.321,0.847-4.829,1.512-7.158c0.247-0.83,0.439-1.981,0.439-2.836    c0-1.162,0.463-2.272,0.488-3.421c0.021-0.826,0.443-1.635,0.443-2.439c0-0.412,0.128-1.064,0.287-1.43    c0.132-0.306,0.073-1.552,0.371-1.724c0.244-0.162,0.556-2.313,0.633-2.708c0.216-1.114,0.519-2.185,0.864-3.268    c0.52-1.627-0.842-0.389-1.565-0.449c-0.774-0.059-2.654,0.834-3.283,1.233c-0.824,0.524-1.888,0.748-2.789,1.121    c-0.934,0.386-2.265,0.555-3.085,1.146c-0.169,0.128-1.392,0.214-1.392,0.477c0-0.07-1.316,0.5-1.422,0.5    c-0.263,0-1.017,0.379-1.232,0.515c-0.372,0.241-0.931,0.335-1.355,0.435c-0.645,0.151-1.243,0.468-1.834,0.765    c-0.667,0.327-2.602,0.506-2.934,1.274c-0.137,0.317,0.366,1.289,0.458,1.579c0.177,0.563,0.337,1.116,0.498,1.683    c0.347,1.218,0.78,2.395,1.151,3.586c1.325,4.248,1.948,8.607,2.82,12.965c0.449,2.246,0.83,4.56,1.079,6.838    c0.155,1.422,0.44,2.832,0.567,4.257C410.03,52.369,410.22,55.677,410.938,55.297z"
   style="fill:#000000" />
	</g>
</g>
</svg>